<svg width="596" height="70" viewBox="0 0 596 70" fill="none" xmlns="http://www.w3.org/2000/svg">
<path d="M1.32 39.5V35.3L12.12 25.1C12.9733 24.3267 13.6 23.6333 14 23.02C14.4 22.4067 14.6667 21.8467 14.8 21.34C14.96 20.8333 15.04 20.3667 15.04 19.94C15.04 18.82 14.6533 17.9667 13.88 17.38C13.1333 16.7667 12.0267 16.46 10.56 16.46C9.38667 16.46 8.29333 16.6867 7.28 17.14C6.29333 17.5933 5.45333 18.3 4.76 19.26L0.04 16.22C1.10667 14.62 2.6 13.3533 4.52 12.42C6.44 11.4867 8.65333 11.02 11.16 11.02C13.24 11.02 15.0533 11.3667 16.6 12.06C18.1733 12.7267 19.3867 13.6733 20.24 14.9C21.12 16.1267 21.56 17.5933 21.56 19.3C21.56 20.2067 21.44 21.1133 21.2 22.02C20.9867 22.9 20.5333 23.8333 19.84 24.82C19.1733 25.8067 18.1867 26.9133 16.88 28.14L7.92 36.58L6.68 34.22H22.48V39.5H1.32ZM37.1538 39.98C34.8604 39.98 32.8071 39.42 30.9938 38.3C29.1804 37.1533 27.7538 35.5 26.7138 33.34C25.6738 31.18 25.1538 28.5667 25.1538 25.5C25.1538 22.4333 25.6738 19.82 26.7138 17.66C27.7538 15.5 29.1804 13.86 30.9938 12.74C32.8071 11.5933 34.8604 11.02 37.1538 11.02C39.4738 11.02 41.5271 11.5933 43.3138 12.74C45.1271 13.86 46.5538 15.5 47.5938 17.66C48.6338 19.82 49.1538 22.4333 49.1538 25.5C49.1538 28.5667 48.6338 31.18 47.5938 33.34C46.5538 35.5 45.1271 37.1533 43.3138 38.3C41.5271 39.42 39.4738 39.98 37.1538 39.98ZM37.1538 34.5C38.2471 34.5 39.1938 34.1933 39.9938 33.58C40.8204 32.9667 41.4604 31.9933 41.9138 30.66C42.3938 29.3267 42.6338 27.6067 42.6338 25.5C42.6338 23.3933 42.3938 21.6733 41.9138 20.34C41.4604 19.0067 40.8204 18.0333 39.9938 17.42C39.1938 16.8067 38.2471 16.5 37.1538 16.5C36.0871 16.5 35.1404 16.8067 34.3138 17.42C33.5138 18.0333 32.8738 19.0067 32.3938 20.34C31.9404 21.6733 31.7138 23.3933 31.7138 25.5C31.7138 27.6067 31.9404 29.3267 32.3938 30.66C32.8738 31.9933 33.5138 32.9667 34.3138 33.58C35.1404 34.1933 36.0871 34.5 37.1538 34.5ZM64.3022 39.98C62.0089 39.98 59.9555 39.42 58.1422 38.3C56.3289 37.1533 54.9022 35.5 53.8622 33.34C52.8222 31.18 52.3022 28.5667 52.3022 25.5C52.3022 22.4333 52.8222 19.82 53.8622 17.66C54.9022 15.5 56.3289 13.86 58.1422 12.74C59.9555 11.5933 62.0089 11.02 64.3022 11.02C66.6222 11.02 68.6755 11.5933 70.4622 12.74C72.2755 13.86 73.7022 15.5 74.7422 17.66C75.7822 19.82 76.3022 22.4333 76.3022 25.5C76.3022 28.5667 75.7822 31.18 74.7422 33.34C73.7022 35.5 72.2755 37.1533 70.4622 38.3C68.6755 39.42 66.6222 39.98 64.3022 39.98ZM64.3022 34.5C65.3955 34.5 66.3422 34.1933 67.1422 33.58C67.9689 32.9667 68.6089 31.9933 69.0622 30.66C69.5422 29.3267 69.7822 27.6067 69.7822 25.5C69.7822 23.3933 69.5422 21.6733 69.0622 20.34C68.6089 19.0067 67.9689 18.0333 67.1422 17.42C66.3422 16.8067 65.3955 16.5 64.3022 16.5C63.2355 16.5 62.2889 16.8067 61.4622 17.42C60.6622 18.0333 60.0222 19.0067 59.5422 20.34C59.0889 21.6733 58.8622 23.3933 58.8622 25.5C58.8622 27.6067 59.0889 29.3267 59.5422 30.66C60.0222 31.9933 60.6622 32.9667 61.4622 33.58C62.2889 34.1933 63.2355 34.5 64.3022 34.5Z" fill="black"/>
<path d="M87.4078 34.74V16.26H92.5678V34.74H87.4078ZM80.4878 27.94V23.06H99.5278V27.94H80.4878Z" fill="#245D30"/>
<path d="M0.272 64.5L4.864 58.292V59.204L0.544 53.3H1.904L5.536 58.228L5.008 58.244L8.64 53.3H9.92L5.648 59.124V58.292L10.224 64.5H8.848L4.976 59.236H5.472L1.632 64.5H0.272ZM17.098 64.5V62.644L17.05 62.34V59.236C17.05 58.5213 16.8473 57.972 16.442 57.588C16.0473 57.204 15.4553 57.012 14.666 57.012C14.122 57.012 13.6047 57.1027 13.114 57.284C12.6233 57.4653 12.2073 57.7053 11.866 58.004L11.354 57.156C11.7807 56.7933 12.2927 56.516 12.89 56.324C13.4873 56.1213 14.1167 56.02 14.778 56.02C15.866 56.02 16.7033 56.292 17.29 56.836C17.8873 57.3693 18.186 58.1853 18.186 59.284V64.5H17.098ZM14.202 64.58C13.5727 64.58 13.0233 64.4787 12.554 64.276C12.0953 64.0627 11.7433 63.7747 11.498 63.412C11.2527 63.0387 11.13 62.612 11.13 62.132C11.13 61.6947 11.2313 61.3 11.434 60.948C11.6473 60.5853 11.9887 60.2973 12.458 60.084C12.938 59.86 13.578 59.748 14.378 59.748H17.274V60.596H14.41C13.5993 60.596 13.034 60.74 12.714 61.028C12.4047 61.316 12.25 61.6733 12.25 62.1C12.25 62.58 12.4367 62.964 12.81 63.252C13.1833 63.54 13.706 63.684 14.378 63.684C15.018 63.684 15.5673 63.54 16.026 63.252C16.4953 62.9533 16.8367 62.5267 17.05 61.972L17.306 62.756C17.0927 63.3107 16.7193 63.7533 16.186 64.084C15.6633 64.4147 15.002 64.58 14.202 64.58ZM21.2715 64.5V52.628H22.4075V64.5H21.2715ZM28.9124 64.58C28.1124 64.58 27.3924 64.3987 26.7524 64.036C26.123 63.6733 25.627 63.172 25.2644 62.532C24.9017 61.892 24.7204 61.1453 24.7204 60.292C24.7204 59.4493 24.9017 58.708 25.2644 58.068C25.627 57.4173 26.123 56.916 26.7524 56.564C27.3924 56.2013 28.1124 56.02 28.9124 56.02C29.659 56.02 30.3204 56.1853 30.8964 56.516C31.483 56.8467 31.947 57.332 32.2884 57.972C32.6297 58.6013 32.8004 59.3747 32.8004 60.292C32.8004 61.2093 32.6244 61.988 32.2724 62.628C31.931 63.2573 31.467 63.7427 30.8804 64.084C30.3044 64.4147 29.6484 64.58 28.9124 64.58ZM28.9924 63.572C29.5897 63.572 30.123 63.4387 30.5924 63.172C31.0724 62.8947 31.4457 62.5107 31.7124 62.02C31.9897 61.5187 32.1284 60.9427 32.1284 60.292C32.1284 59.6413 31.9897 59.0707 31.7124 58.58C31.4457 58.0893 31.0724 57.7053 30.5924 57.428C30.123 57.1507 29.5897 57.012 28.9924 57.012C28.4057 57.012 27.8777 57.1507 27.4084 57.428C26.939 57.7053 26.5657 58.0893 26.2884 58.58C26.011 59.0707 25.8724 59.6413 25.8724 60.292C25.8724 60.9427 26.011 61.5187 26.2884 62.02C26.5657 62.5107 26.939 62.8947 27.4084 63.172C27.8777 63.4387 28.4057 63.572 28.9924 63.572ZM32.1124 67.604V62.004L32.2724 60.308L32.1604 58.628V56.1H33.2484V67.604H32.1124ZM41.6761 64.5V62.644L41.6281 62.34V59.236C41.6281 58.5213 41.4255 57.972 41.0201 57.588C40.6255 57.204 40.0335 57.012 39.2441 57.012C38.7001 57.012 38.1828 57.1027 37.6921 57.284C37.2015 57.4653 36.7855 57.7053 36.4441 58.004L35.9321 57.156C36.3588 56.7933 36.8708 56.516 37.4681 56.324C38.0655 56.1213 38.6948 56.02 39.3561 56.02C40.4441 56.02 41.2815 56.292 41.8681 56.836C42.4655 57.3693 42.7641 58.1853 42.7641 59.284V64.5H41.6761ZM38.7801 64.58C38.1508 64.58 37.6015 64.4787 37.1321 64.276C36.6735 64.0627 36.3215 63.7747 36.0761 63.412C35.8308 63.0387 35.7081 62.612 35.7081 62.132C35.7081 61.6947 35.8095 61.3 36.0121 60.948C36.2255 60.5853 36.5668 60.2973 37.0361 60.084C37.5161 59.86 38.1561 59.748 38.9561 59.748H41.8521V60.596H38.9881C38.1775 60.596 37.6121 60.74 37.2921 61.028C36.9828 61.316 36.8281 61.6733 36.8281 62.1C36.8281 62.58 37.0148 62.964 37.3881 63.252C37.7615 63.54 38.2841 63.684 38.9561 63.684C39.5961 63.684 40.1455 63.54 40.6041 63.252C41.0735 62.9533 41.4148 62.5267 41.6281 61.972L41.8841 62.756C41.6708 63.3107 41.2975 63.7533 40.7641 64.084C40.2415 64.4147 39.5801 64.58 38.7801 64.58ZM45.8496 64.5V56.1H46.9376V58.388L46.8256 57.988C47.0603 57.348 47.455 56.8627 48.0096 56.532C48.5643 56.1907 49.2523 56.02 50.0736 56.02V57.124C50.031 57.124 49.9883 57.124 49.9456 57.124C49.903 57.1133 49.8603 57.108 49.8176 57.108C48.9323 57.108 48.239 57.38 47.7376 57.924C47.2363 58.4573 46.9856 59.22 46.9856 60.212V64.5H45.8496ZM55.4924 64.58C54.6817 64.58 53.951 64.3987 53.3004 64.036C52.6604 63.6627 52.1537 63.156 51.7804 62.516C51.407 61.8653 51.2204 61.124 51.2204 60.292C51.2204 59.4493 51.407 58.708 51.7804 58.068C52.1537 57.428 52.6604 56.9267 53.3004 56.564C53.9404 56.2013 54.671 56.02 55.4924 56.02C56.3244 56.02 57.0604 56.2013 57.7004 56.564C58.351 56.9267 58.8577 57.428 59.2204 58.068C59.5937 58.708 59.7804 59.4493 59.7804 60.292C59.7804 61.124 59.5937 61.8653 59.2204 62.516C58.8577 63.156 58.351 63.6627 57.7004 64.036C57.0497 64.3987 56.3137 64.58 55.4924 64.58ZM55.4924 63.572C56.1004 63.572 56.639 63.4387 57.1084 63.172C57.5777 62.8947 57.9457 62.5107 58.2124 62.02C58.4897 61.5187 58.6284 60.9427 58.6284 60.292C58.6284 59.6307 58.4897 59.0547 58.2124 58.564C57.9457 58.0733 57.5777 57.6947 57.1084 57.428C56.639 57.1507 56.1057 57.012 55.5084 57.012C54.911 57.012 54.3777 57.1507 53.9084 57.428C53.439 57.6947 53.0657 58.0733 52.7884 58.564C52.511 59.0547 52.3724 59.6307 52.3724 60.292C52.3724 60.9427 52.511 61.5187 52.7884 62.02C53.0657 62.5107 53.439 62.8947 53.9084 63.172C54.3777 63.4387 54.9057 63.572 55.4924 63.572ZM70.6231 64.58C69.8871 64.58 69.2258 64.4147 68.6391 64.084C68.0525 63.7427 67.5885 63.252 67.2471 62.612C66.9058 61.972 66.7351 61.1987 66.7351 60.292C66.7351 59.3747 66.9058 58.6013 67.2471 57.972C67.5991 57.332 68.0685 56.8467 68.6551 56.516C69.2418 56.1853 69.8978 56.02 70.6231 56.02C71.4231 56.02 72.1378 56.2013 72.7671 56.564C73.4071 56.916 73.9085 57.412 74.2711 58.052C74.6338 58.692 74.8151 59.4387 74.8151 60.292C74.8151 61.1347 74.6338 61.8813 74.2711 62.532C73.9085 63.172 73.4071 63.6733 72.7671 64.036C72.1378 64.3987 71.4231 64.58 70.6231 64.58ZM66.2871 64.5V52.628H67.4231V58.58L67.2631 60.276L67.3751 61.972V64.5H66.2871ZM70.5431 63.572C71.1405 63.572 71.6738 63.4387 72.1431 63.172C72.6125 62.8947 72.9858 62.5107 73.2631 62.02C73.5405 61.5187 73.6791 60.9427 73.6791 60.292C73.6791 59.6307 73.5405 59.0547 73.2631 58.564C72.9858 58.0733 72.6125 57.6947 72.1431 57.428C71.6738 57.1507 71.1405 57.012 70.5431 57.012C69.9458 57.012 69.4071 57.1507 68.9271 57.428C68.4578 57.6947 68.0845 58.0733 67.8071 58.564C67.5405 59.0547 67.4071 59.6307 67.4071 60.292C67.4071 60.9427 67.5405 61.5187 67.8071 62.02C68.0845 62.5107 68.4578 62.8947 68.9271 63.172C69.4071 63.4387 69.9458 63.572 70.5431 63.572ZM77.1309 64.5V56.1H78.2189V58.388L78.1069 57.988C78.3415 57.348 78.7362 56.8627 79.2909 56.532C79.8455 56.1907 80.5335 56.02 81.3549 56.02V57.124C81.3122 57.124 81.2695 57.124 81.2269 57.124C81.1842 57.1133 81.1415 57.108 81.0989 57.108C80.2135 57.108 79.5202 57.38 79.0189 57.924C78.5175 58.4573 78.2669 59.22 78.2669 60.212V64.5H77.1309ZM86.9176 64.58C86.043 64.58 85.275 64.3987 84.6136 64.036C83.9523 63.6627 83.435 63.156 83.0616 62.516C82.6883 61.8653 82.5016 61.124 82.5016 60.292C82.5016 59.46 82.6776 58.724 83.0296 58.084C83.3923 57.444 83.883 56.9427 84.5016 56.58C85.131 56.2067 85.835 56.02 86.6136 56.02C87.403 56.02 88.1016 56.2013 88.7096 56.564C89.3283 56.916 89.8136 57.4173 90.1656 58.068C90.5176 58.708 90.6936 59.4493 90.6936 60.292C90.6936 60.3453 90.6883 60.404 90.6776 60.468C90.6776 60.5213 90.6776 60.58 90.6776 60.644H83.3656V59.796H90.0696L89.6216 60.132C89.6216 59.524 89.4883 58.9853 89.2216 58.516C88.9656 58.036 88.6136 57.6627 88.1656 57.396C87.7176 57.1293 87.2003 56.996 86.6136 56.996C86.0376 56.996 85.5203 57.1293 85.0616 57.396C84.603 57.6627 84.2456 58.036 83.9896 58.516C83.7336 58.996 83.6056 59.5453 83.6056 60.164V60.34C83.6056 60.98 83.7443 61.5453 84.0216 62.036C84.3096 62.516 84.7043 62.8947 85.2056 63.172C85.7176 63.4387 86.299 63.572 86.9496 63.572C87.4616 63.572 87.9363 63.4813 88.3736 63.3C88.8216 63.1187 89.2056 62.8413 89.5256 62.468L90.1656 63.204C89.7923 63.652 89.323 63.9933 88.7576 64.228C88.203 64.4627 87.5896 64.58 86.9176 64.58ZM97.2939 56.02C97.9765 56.02 98.5739 56.1533 99.0859 56.42C99.6085 56.676 100.014 57.0707 100.302 57.604C100.601 58.1373 100.75 58.8093 100.75 59.62V64.5H99.6139V59.732C99.6139 58.8467 99.3899 58.18 98.9419 57.732C98.5045 57.2733 97.8859 57.044 97.0859 57.044C96.4885 57.044 95.9659 57.1667 95.5179 57.412C95.0805 57.6467 94.7392 57.9933 94.4939 58.452C94.2592 58.9 94.1419 59.444 94.1419 60.084V64.5H93.0059V56.1H94.0939V58.404L93.9179 57.972C94.1845 57.364 94.6112 56.8893 95.1979 56.548C95.7845 56.196 96.4832 56.02 97.2939 56.02ZM107.162 64.58C106.362 64.58 105.642 64.3987 105.002 64.036C104.373 63.6733 103.877 63.172 103.514 62.532C103.152 61.8813 102.97 61.1347 102.97 60.292C102.97 59.4387 103.152 58.692 103.514 58.052C103.877 57.412 104.373 56.916 105.002 56.564C105.642 56.2013 106.362 56.02 107.162 56.02C107.898 56.02 108.554 56.1853 109.13 56.516C109.717 56.8467 110.181 57.332 110.522 57.972C110.874 58.6013 111.05 59.3747 111.05 60.292C111.05 61.1987 110.88 61.972 110.538 62.612C110.197 63.252 109.733 63.7427 109.146 64.084C108.57 64.4147 107.909 64.58 107.162 64.58ZM107.242 63.572C107.84 63.572 108.373 63.4387 108.842 63.172C109.322 62.8947 109.696 62.5107 109.962 62.02C110.24 61.5187 110.378 60.9427 110.378 60.292C110.378 59.6307 110.24 59.0547 109.962 58.564C109.696 58.0733 109.322 57.6947 108.842 57.428C108.373 57.1507 107.84 57.012 107.242 57.012C106.656 57.012 106.128 57.1507 105.658 57.428C105.189 57.6947 104.816 58.0733 104.538 58.564C104.261 59.0547 104.122 59.6307 104.122 60.292C104.122 60.9427 104.261 61.5187 104.538 62.02C104.816 62.5107 105.189 62.8947 105.658 63.172C106.128 63.4387 106.656 63.572 107.242 63.572ZM110.41 64.5V61.972L110.522 60.276L110.362 58.58V52.628H111.498V64.5H110.41ZM114.662 64.5V52.628H115.798V64.5H114.662ZM124.223 64.5V62.644L124.175 62.34V59.236C124.175 58.5213 123.972 57.972 123.567 57.588C123.172 57.204 122.58 57.012 121.791 57.012C121.247 57.012 120.73 57.1027 120.239 57.284C119.748 57.4653 119.332 57.7053 118.991 58.004L118.479 57.156C118.906 56.7933 119.418 56.516 120.015 56.324C120.612 56.1213 121.242 56.02 121.903 56.02C122.991 56.02 123.828 56.292 124.415 56.836C125.012 57.3693 125.311 58.1853 125.311 59.284V64.5H124.223ZM121.327 64.58C120.698 64.58 120.148 64.4787 119.679 64.276C119.22 64.0627 118.868 63.7747 118.623 63.412C118.378 63.0387 118.255 62.612 118.255 62.132C118.255 61.6947 118.356 61.3 118.559 60.948C118.772 60.5853 119.114 60.2973 119.583 60.084C120.063 59.86 120.703 59.748 121.503 59.748H124.399V60.596H121.535C120.724 60.596 120.159 60.74 119.839 61.028C119.53 61.316 119.375 61.6733 119.375 62.1C119.375 62.58 119.562 62.964 119.935 63.252C120.308 63.54 120.831 63.684 121.503 63.684C122.143 63.684 122.692 63.54 123.151 63.252C123.62 62.9533 123.962 62.5267 124.175 61.972L124.431 62.756C124.218 63.3107 123.844 63.7533 123.311 64.084C122.788 64.4147 122.127 64.58 121.327 64.58ZM128.397 64.5V56.1H129.485V58.388L129.373 57.988C129.607 57.348 130.002 56.8627 130.557 56.532C131.111 56.1907 131.799 56.02 132.621 56.02V57.124C132.578 57.124 132.535 57.124 132.493 57.124C132.45 57.1133 132.407 57.108 132.365 57.108C131.479 57.108 130.786 57.38 130.285 57.924C129.783 58.4573 129.533 59.22 129.533 60.212V64.5H128.397Z" fill="black" fill-opacity="0.6"/>
<line x1="154.5" y1="0.5" x2="154.5" y2="69.5" stroke="black" stroke-opacity="0.1"/>
<path d="M175.32 39.5V35.3L186.12 25.1C186.973 24.3267 187.6 23.6333 188 23.02C188.4 22.4067 188.667 21.8467 188.8 21.34C188.96 20.8333 189.04 20.3667 189.04 19.94C189.04 18.82 188.653 17.9667 187.88 17.38C187.133 16.7667 186.027 16.46 184.56 16.46C183.387 16.46 182.293 16.6867 181.28 17.14C180.293 17.5933 179.453 18.3 178.76 19.26L174.04 16.22C175.107 14.62 176.6 13.3533 178.52 12.42C180.44 11.4867 182.653 11.02 185.16 11.02C187.24 11.02 189.053 11.3667 190.6 12.06C192.173 12.7267 193.387 13.6733 194.24 14.9C195.12 16.1267 195.56 17.5933 195.56 19.3C195.56 20.2067 195.44 21.1133 195.2 22.02C194.987 22.9 194.533 23.8333 193.84 24.82C193.173 25.8067 192.187 26.9133 190.88 28.14L181.92 36.58L180.68 34.22H196.48V39.5H175.32ZM199.784 45.66L202.424 36.06L203.304 39.66C202.158 39.66 201.211 39.3267 200.464 38.66C199.744 37.9933 199.384 37.0733 199.384 35.9C199.384 34.7267 199.758 33.7933 200.504 33.1C201.251 32.4067 202.171 32.06 203.264 32.06C204.384 32.06 205.304 32.42 206.024 33.14C206.744 33.8333 207.104 34.7533 207.104 35.9C207.104 36.2467 207.078 36.5933 207.024 36.94C206.971 37.26 206.864 37.66 206.704 38.14C206.571 38.5933 206.344 39.18 206.024 39.9L203.744 45.66H199.784ZM221.505 39.98C219.212 39.98 217.159 39.42 215.345 38.3C213.532 37.1533 212.105 35.5 211.065 33.34C210.025 31.18 209.505 28.5667 209.505 25.5C209.505 22.4333 210.025 19.82 211.065 17.66C212.105 15.5 213.532 13.86 215.345 12.74C217.159 11.5933 219.212 11.02 221.505 11.02C223.825 11.02 225.879 11.5933 227.665 12.74C229.479 13.86 230.905 15.5 231.945 17.66C232.985 19.82 233.505 22.4333 233.505 25.5C233.505 28.5667 232.985 31.18 231.945 33.34C230.905 35.5 229.479 37.1533 227.665 38.3C225.879 39.42 223.825 39.98 221.505 39.98ZM221.505 34.5C222.599 34.5 223.545 34.1933 224.345 33.58C225.172 32.9667 225.812 31.9933 226.265 30.66C226.745 29.3267 226.985 27.6067 226.985 25.5C226.985 23.3933 226.745 21.6733 226.265 20.34C225.812 19.0067 225.172 18.0333 224.345 17.42C223.545 16.8067 222.599 16.5 221.505 16.5C220.439 16.5 219.492 16.8067 218.665 17.42C217.865 18.0333 217.225 19.0067 216.745 20.34C216.292 21.6733 216.065 23.3933 216.065 25.5C216.065 27.6067 216.292 29.3267 216.745 30.66C217.225 31.9933 217.865 32.9667 218.665 33.58C219.492 34.1933 220.439 34.5 221.505 34.5ZM248.654 39.98C246.36 39.98 244.307 39.42 242.494 38.3C240.68 37.1533 239.254 35.5 238.214 33.34C237.174 31.18 236.654 28.5667 236.654 25.5C236.654 22.4333 237.174 19.82 238.214 17.66C239.254 15.5 240.68 13.86 242.494 12.74C244.307 11.5933 246.36 11.02 248.654 11.02C250.974 11.02 253.027 11.5933 254.814 12.74C256.627 13.86 258.054 15.5 259.094 17.66C260.134 19.82 260.654 22.4333 260.654 25.5C260.654 28.5667 260.134 31.18 259.094 33.34C258.054 35.5 256.627 37.1533 254.814 38.3C253.027 39.42 250.974 39.98 248.654 39.98ZM248.654 34.5C249.747 34.5 250.694 34.1933 251.494 33.58C252.32 32.9667 252.96 31.9933 253.414 30.66C253.894 29.3267 254.134 27.6067 254.134 25.5C254.134 23.3933 253.894 21.6733 253.414 20.34C252.96 19.0067 252.32 18.0333 251.494 17.42C250.694 16.8067 249.747 16.5 248.654 16.5C247.587 16.5 246.64 16.8067 245.814 17.42C245.014 18.0333 244.374 19.0067 243.894 20.34C243.44 21.6733 243.214 23.3933 243.214 25.5C243.214 27.6067 243.44 29.3267 243.894 30.66C244.374 31.9933 245.014 32.9667 245.814 33.58C246.64 34.1933 247.587 34.5 248.654 34.5ZM275.802 39.98C273.509 39.98 271.456 39.42 269.642 38.3C267.829 37.1533 266.402 35.5 265.362 33.34C264.322 31.18 263.802 28.5667 263.802 25.5C263.802 22.4333 264.322 19.82 265.362 17.66C266.402 15.5 267.829 13.86 269.642 12.74C271.456 11.5933 273.509 11.02 275.802 11.02C278.122 11.02 280.176 11.5933 281.962 12.74C283.776 13.86 285.202 15.5 286.242 17.66C287.282 19.82 287.802 22.4333 287.802 25.5C287.802 28.5667 287.282 31.18 286.242 33.34C285.202 35.5 283.776 37.1533 281.962 38.3C280.176 39.42 278.122 39.98 275.802 39.98ZM275.802 34.5C276.896 34.5 277.842 34.1933 278.642 33.58C279.469 32.9667 280.109 31.9933 280.562 30.66C281.042 29.3267 281.282 27.6067 281.282 25.5C281.282 23.3933 281.042 21.6733 280.562 20.34C280.109 19.0067 279.469 18.0333 278.642 17.42C277.842 16.8067 276.896 16.5 275.802 16.5C274.736 16.5 273.789 16.8067 272.962 17.42C272.162 18.0333 271.522 19.0067 271.042 20.34C270.589 21.6733 270.362 23.3933 270.362 25.5C270.362 27.6067 270.589 29.3267 271.042 30.66C271.522 31.9933 272.162 32.9667 272.962 33.58C273.789 34.1933 274.736 34.5 275.802 34.5Z" fill="black"/>
<path d="M298.908 34.74V16.26H304.068V34.74H298.908ZM291.988 27.94V23.06H311.028V27.94H291.988Z" fill="#245D30"/>
<path d="M178.496 64.5V60.34L178.768 61.076L174.016 53.3H175.28L179.456 60.132H178.784L182.96 53.3H184.144L179.392 61.076L179.664 60.34V64.5H178.496ZM188.65 64.58C187.935 64.58 187.311 64.4467 186.778 64.18C186.244 63.9133 185.828 63.5133 185.53 62.98C185.242 62.4467 185.098 61.78 185.098 60.98V56.1H186.234V60.852C186.234 61.748 186.452 62.4253 186.89 62.884C187.338 63.332 187.962 63.556 188.762 63.556C189.348 63.556 189.855 63.4387 190.282 63.204C190.719 62.9587 191.05 62.6067 191.274 62.148C191.508 61.6893 191.626 61.14 191.626 60.5V56.1H192.762V64.5H191.674V62.196L191.85 62.612C191.583 63.2307 191.167 63.716 190.602 64.068C190.047 64.4093 189.396 64.58 188.65 64.58ZM199.272 64.58C198.472 64.58 197.752 64.3987 197.112 64.036C196.482 63.6733 195.986 63.172 195.624 62.532C195.261 61.892 195.08 61.1453 195.08 60.292C195.08 59.4493 195.261 58.708 195.624 58.068C195.986 57.4173 196.482 56.916 197.112 56.564C197.752 56.2013 198.472 56.02 199.272 56.02C200.018 56.02 200.68 56.1853 201.256 56.516C201.842 56.8467 202.306 57.332 202.648 57.972C202.989 58.6013 203.16 59.3747 203.16 60.292C203.16 61.2093 202.984 61.988 202.632 62.628C202.29 63.2573 201.826 63.7427 201.24 64.084C200.664 64.4147 200.008 64.58 199.272 64.58ZM199.352 63.572C199.949 63.572 200.482 63.4387 200.952 63.172C201.432 62.8947 201.805 62.5107 202.072 62.02C202.349 61.5187 202.488 60.9427 202.488 60.292C202.488 59.6413 202.349 59.0707 202.072 58.58C201.805 58.0893 201.432 57.7053 200.952 57.428C200.482 57.1507 199.949 57.012 199.352 57.012C198.765 57.012 198.237 57.1507 197.768 57.428C197.298 57.7053 196.925 58.0893 196.648 58.58C196.37 59.0707 196.232 59.6413 196.232 60.292C196.232 60.9427 196.37 61.5187 196.648 62.02C196.925 62.5107 197.298 62.8947 197.768 63.172C198.237 63.4387 198.765 63.572 199.352 63.572ZM202.472 67.604V62.004L202.632 60.308L202.52 58.628V56.1H203.608V67.604H202.472ZM210.196 64.58C209.385 64.58 208.654 64.3987 208.004 64.036C207.364 63.6627 206.857 63.156 206.484 62.516C206.11 61.8653 205.924 61.124 205.924 60.292C205.924 59.4493 206.11 58.708 206.484 58.068C206.857 57.428 207.364 56.9267 208.004 56.564C208.644 56.2013 209.374 56.02 210.196 56.02C211.028 56.02 211.764 56.2013 212.404 56.564C213.054 56.9267 213.561 57.428 213.924 58.068C214.297 58.708 214.484 59.4493 214.484 60.292C214.484 61.124 214.297 61.8653 213.924 62.516C213.561 63.156 213.054 63.6627 212.404 64.036C211.753 64.3987 211.017 64.58 210.196 64.58ZM210.196 63.572C210.804 63.572 211.342 63.4387 211.812 63.172C212.281 62.8947 212.649 62.5107 212.916 62.02C213.193 61.5187 213.332 60.9427 213.332 60.292C213.332 59.6307 213.193 59.0547 212.916 58.564C212.649 58.0733 212.281 57.6947 211.812 57.428C211.342 57.1507 210.809 57.012 210.212 57.012C209.614 57.012 209.081 57.1507 208.612 57.428C208.142 57.6947 207.769 58.0733 207.492 58.564C207.214 59.0547 207.076 59.6307 207.076 60.292C207.076 60.9427 207.214 61.5187 207.492 62.02C207.769 62.5107 208.142 62.8947 208.612 63.172C209.081 63.4387 209.609 63.572 210.196 63.572ZM216.803 64.5V56.1H217.891V58.388L217.779 57.988C218.013 57.348 218.408 56.8627 218.963 56.532C219.517 56.1907 220.205 56.02 221.027 56.02V57.124C220.984 57.124 220.941 57.124 220.899 57.124C220.856 57.1133 220.813 57.108 220.771 57.108C219.885 57.108 219.192 57.38 218.691 57.924C218.189 58.4573 217.939 59.22 217.939 60.212V64.5H216.803ZM223.1 64.5V56.1H224.236V64.5H223.1ZM223.676 54.244C223.441 54.244 223.244 54.164 223.084 54.004C222.924 53.844 222.844 53.652 222.844 53.428C222.844 53.204 222.924 53.0173 223.084 52.868C223.244 52.708 223.441 52.628 223.676 52.628C223.91 52.628 224.108 52.7027 224.268 52.852C224.428 53.0013 224.508 53.188 224.508 53.412C224.508 53.6467 224.428 53.844 224.268 54.004C224.118 54.164 223.921 54.244 223.676 54.244ZM234.912 64.596C234.08 64.596 233.28 64.4627 232.512 64.196C231.755 63.9187 231.168 63.5667 230.752 63.14L231.216 62.228C231.611 62.612 232.139 62.9373 232.8 63.204C233.472 63.46 234.176 63.588 234.912 63.588C235.616 63.588 236.187 63.5027 236.624 63.332C237.072 63.1507 237.397 62.9107 237.6 62.612C237.813 62.3133 237.92 61.9827 237.92 61.62C237.92 61.1827 237.792 60.8307 237.536 60.564C237.291 60.2973 236.965 60.0893 236.56 59.94C236.155 59.78 235.707 59.6413 235.216 59.524C234.725 59.4067 234.235 59.284 233.744 59.156C233.253 59.0173 232.8 58.836 232.384 58.612C231.979 58.388 231.648 58.0947 231.392 57.732C231.147 57.3587 231.024 56.8733 231.024 56.276C231.024 55.7213 231.168 55.2147 231.456 54.756C231.755 54.2867 232.208 53.9133 232.816 53.636C233.424 53.348 234.203 53.204 235.152 53.204C235.781 53.204 236.405 53.2947 237.024 53.476C237.643 53.6467 238.176 53.8867 238.624 54.196L238.224 55.14C237.744 54.82 237.232 54.5853 236.688 54.436C236.155 54.2867 235.637 54.212 235.136 54.212C234.464 54.212 233.909 54.3027 233.472 54.484C233.035 54.6653 232.709 54.9107 232.496 55.22C232.293 55.5187 232.192 55.86 232.192 56.244C232.192 56.6813 232.315 57.0333 232.56 57.3C232.816 57.5667 233.147 57.7747 233.552 57.924C233.968 58.0733 234.421 58.2067 234.912 58.324C235.403 58.4413 235.888 58.5693 236.368 58.708C236.859 58.8467 237.307 59.028 237.712 59.252C238.128 59.4653 238.459 59.7533 238.704 60.116C238.96 60.4787 239.088 60.9533 239.088 61.54C239.088 62.084 238.939 62.5907 238.64 63.06C238.341 63.5187 237.883 63.892 237.264 64.18C236.656 64.4573 235.872 64.596 234.912 64.596ZM241.428 64.5V56.1H242.564V64.5H241.428ZM242.004 54.244C241.769 54.244 241.572 54.164 241.412 54.004C241.252 53.844 241.172 53.652 241.172 53.428C241.172 53.204 241.252 53.0173 241.412 52.868C241.572 52.708 241.769 52.628 242.004 52.628C242.238 52.628 242.436 52.7027 242.596 52.852C242.756 53.0013 242.836 53.188 242.836 53.412C242.836 53.6467 242.756 53.844 242.596 54.004C242.446 54.164 242.249 54.244 242.004 54.244ZM245.917 64.5V55.044C245.917 54.2973 246.135 53.6947 246.573 53.236C247.01 52.7773 247.639 52.548 248.461 52.548C248.781 52.548 249.09 52.5907 249.389 52.676C249.687 52.7613 249.938 52.8947 250.141 53.076L249.757 53.924C249.597 53.7853 249.41 53.684 249.197 53.62C248.983 53.5453 248.754 53.508 248.509 53.508C248.029 53.508 247.661 53.6413 247.405 53.908C247.149 54.1747 247.021 54.5693 247.021 55.092V56.372L247.053 56.9V64.5H245.917ZM244.413 57.044V56.1H249.613V57.044H244.413ZM256.254 64.5V62.644L256.206 62.34V59.236C256.206 58.5213 256.004 57.972 255.598 57.588C255.204 57.204 254.612 57.012 253.822 57.012C253.278 57.012 252.761 57.1027 252.27 57.284C251.78 57.4653 251.364 57.7053 251.022 58.004L250.51 57.156C250.937 56.7933 251.449 56.516 252.046 56.324C252.644 56.1213 253.273 56.02 253.934 56.02C255.022 56.02 255.86 56.292 256.446 56.836C257.044 57.3693 257.342 58.1853 257.342 59.284V64.5H256.254ZM253.358 64.58C252.729 64.58 252.18 64.4787 251.71 64.276C251.252 64.0627 250.9 63.7747 250.654 63.412C250.409 63.0387 250.286 62.612 250.286 62.132C250.286 61.6947 250.388 61.3 250.59 60.948C250.804 60.5853 251.145 60.2973 251.614 60.084C252.094 59.86 252.734 59.748 253.534 59.748H256.43V60.596H253.566C252.756 60.596 252.19 60.74 251.87 61.028C251.561 61.316 251.406 61.6733 251.406 62.1C251.406 62.58 251.593 62.964 251.966 63.252C252.34 63.54 252.862 63.684 253.534 63.684C254.174 63.684 254.724 63.54 255.182 63.252C255.652 62.9533 255.993 62.5267 256.206 61.972L256.462 62.756C256.249 63.3107 255.876 63.7533 255.342 64.084C254.82 64.4147 254.158 64.58 253.358 64.58ZM263.084 64.58C262.294 64.58 261.686 64.3667 261.26 63.94C260.833 63.5133 260.62 62.9107 260.62 62.132V54.244H261.756V62.068C261.756 62.5587 261.878 62.9373 262.124 63.204C262.38 63.4707 262.742 63.604 263.212 63.604C263.713 63.604 264.129 63.46 264.46 63.172L264.86 63.988C264.636 64.1907 264.364 64.34 264.044 64.436C263.734 64.532 263.414 64.58 263.084 64.58ZM259.116 57.044V56.1H264.316V57.044H259.116ZM266.928 64.5V52.628H268.064V64.5H266.928ZM271.225 64.5V56.1H272.361V64.5H271.225ZM271.801 54.244C271.566 54.244 271.369 54.164 271.209 54.004C271.049 53.844 270.969 53.652 270.969 53.428C270.969 53.204 271.049 53.0173 271.209 52.868C271.369 52.708 271.566 52.628 271.801 52.628C272.035 52.628 272.233 52.7027 272.393 52.852C272.553 53.0013 272.633 53.188 272.633 53.412C272.633 53.6467 272.553 53.844 272.393 54.004C272.243 54.164 272.046 54.244 271.801 54.244ZM279.949 64.5V53.3H280.925L286.045 62.036H285.533L290.605 53.3H291.581V64.5H290.445V55.076H290.717L286.045 63.076H285.485L280.781 55.076H281.085V64.5H279.949ZM300.254 64.5V62.644L300.206 62.34V59.236C300.206 58.5213 300.004 57.972 299.598 57.588C299.204 57.204 298.612 57.012 297.822 57.012C297.278 57.012 296.761 57.1027 296.27 57.284C295.78 57.4653 295.364 57.7053 295.022 58.004L294.51 57.156C294.937 56.7933 295.449 56.516 296.046 56.324C296.644 56.1213 297.273 56.02 297.934 56.02C299.022 56.02 299.86 56.292 300.446 56.836C301.044 57.3693 301.342 58.1853 301.342 59.284V64.5H300.254ZM297.358 64.58C296.729 64.58 296.18 64.4787 295.71 64.276C295.252 64.0627 294.9 63.7747 294.654 63.412C294.409 63.0387 294.286 62.612 294.286 62.132C294.286 61.6947 294.388 61.3 294.59 60.948C294.804 60.5853 295.145 60.2973 295.614 60.084C296.094 59.86 296.734 59.748 297.534 59.748H300.43V60.596H297.566C296.756 60.596 296.19 60.74 295.87 61.028C295.561 61.316 295.406 61.6733 295.406 62.1C295.406 62.58 295.593 62.964 295.966 63.252C296.34 63.54 296.862 63.684 297.534 63.684C298.174 63.684 298.724 63.54 299.182 63.252C299.652 62.9533 299.993 62.5267 300.206 61.972L300.462 62.756C300.249 63.3107 299.876 63.7533 299.342 64.084C298.82 64.4147 298.158 64.58 297.358 64.58ZM308.716 56.02C309.398 56.02 309.996 56.1533 310.508 56.42C311.03 56.676 311.436 57.0707 311.724 57.604C312.022 58.1373 312.172 58.8093 312.172 59.62V64.5H311.036V59.732C311.036 58.8467 310.812 58.18 310.364 57.732C309.926 57.2733 309.308 57.044 308.508 57.044C307.91 57.044 307.388 57.1667 306.94 57.412C306.502 57.6467 306.161 57.9933 305.916 58.452C305.681 58.9 305.564 59.444 305.564 60.084V64.5H304.428V52.628H305.564V58.404L305.34 57.972C305.606 57.364 306.033 56.8893 306.62 56.548C307.206 56.196 307.905 56.02 308.716 56.02ZM317.496 64.58C316.803 64.58 316.147 64.484 315.528 64.292C314.91 64.0893 314.424 63.8387 314.072 63.54L314.584 62.644C314.926 62.9 315.363 63.124 315.896 63.316C316.43 63.4973 316.99 63.588 317.576 63.588C318.376 63.588 318.952 63.4653 319.304 63.22C319.656 62.964 319.832 62.628 319.832 62.212C319.832 61.9027 319.731 61.6627 319.528 61.492C319.336 61.3107 319.08 61.1773 318.76 61.092C318.44 60.996 318.083 60.916 317.688 60.852C317.294 60.788 316.899 60.7133 316.504 60.628C316.12 60.5427 315.768 60.42 315.448 60.26C315.128 60.0893 314.867 59.86 314.664 59.572C314.472 59.284 314.376 58.9 314.376 58.42C314.376 57.9613 314.504 57.5507 314.76 57.188C315.016 56.8253 315.39 56.5427 315.88 56.34C316.382 56.1267 316.99 56.02 317.704 56.02C318.248 56.02 318.792 56.0947 319.336 56.244C319.88 56.3827 320.328 56.5693 320.68 56.804L320.184 57.716C319.811 57.46 319.411 57.2787 318.984 57.172C318.558 57.0547 318.131 56.996 317.704 56.996C316.947 56.996 316.387 57.1293 316.024 57.396C315.672 57.652 315.496 57.9827 315.496 58.388C315.496 58.708 315.592 58.9587 315.784 59.14C315.987 59.3213 316.248 59.4653 316.568 59.572C316.899 59.668 317.256 59.748 317.64 59.812C318.035 59.876 318.424 59.956 318.808 60.052C319.203 60.1373 319.56 60.26 319.88 60.42C320.211 60.5693 320.472 60.788 320.664 61.076C320.867 61.3533 320.968 61.7213 320.968 62.18C320.968 62.6707 320.83 63.0973 320.552 63.46C320.286 63.812 319.891 64.0893 319.368 64.292C318.856 64.484 318.232 64.58 317.496 64.58ZM326.525 64.58C325.81 64.58 325.186 64.4467 324.653 64.18C324.119 63.9133 323.703 63.5133 323.405 62.98C323.117 62.4467 322.973 61.78 322.973 60.98V56.1H324.109V60.852C324.109 61.748 324.327 62.4253 324.765 62.884C325.213 63.332 325.837 63.556 326.637 63.556C327.223 63.556 327.73 63.4387 328.157 63.204C328.594 62.9587 328.925 62.6067 329.149 62.148C329.383 61.6893 329.501 61.14 329.501 60.5V56.1H330.637V64.5H329.549V62.196L329.725 62.612C329.458 63.2307 329.042 63.716 328.477 64.068C327.922 64.4093 327.271 64.58 326.525 64.58ZM333.803 64.5V52.628H334.939V64.5H333.803ZM341.524 64.58C340.713 64.58 339.982 64.3987 339.332 64.036C338.692 63.6627 338.185 63.156 337.812 62.516C337.438 61.8653 337.252 61.124 337.252 60.292C337.252 59.4493 337.438 58.708 337.812 58.068C338.185 57.428 338.692 56.9267 339.332 56.564C339.972 56.2013 340.702 56.02 341.524 56.02C342.356 56.02 343.092 56.2013 343.732 56.564C344.382 56.9267 344.889 57.428 345.252 58.068C345.625 58.708 345.812 59.4493 345.812 60.292C345.812 61.124 345.625 61.8653 345.252 62.516C344.889 63.156 344.382 63.6627 343.732 64.036C343.081 64.3987 342.345 64.58 341.524 64.58ZM341.524 63.572C342.132 63.572 342.67 63.4387 343.14 63.172C343.609 62.8947 343.977 62.5107 344.244 62.02C344.521 61.5187 344.66 60.9427 344.66 60.292C344.66 59.6307 344.521 59.0547 344.244 58.564C343.977 58.0733 343.609 57.6947 343.14 57.428C342.67 57.1507 342.137 57.012 341.54 57.012C340.942 57.012 340.409 57.1507 339.94 57.428C339.47 57.6947 339.097 58.0733 338.82 58.564C338.542 59.0547 338.404 59.6307 338.404 60.292C338.404 60.9427 338.542 61.5187 338.82 62.02C339.097 62.5107 339.47 62.8947 339.94 63.172C340.409 63.4387 340.937 63.572 341.524 63.572ZM350.787 64.58C349.998 64.58 349.39 64.3667 348.963 63.94C348.536 63.5133 348.323 62.9107 348.323 62.132V54.244H349.459V62.068C349.459 62.5587 349.582 62.9373 349.827 63.204C350.083 63.4707 350.446 63.604 350.915 63.604C351.416 63.604 351.832 63.46 352.163 63.172L352.563 63.988C352.339 64.1907 352.067 64.34 351.747 64.436C351.438 64.532 351.118 64.58 350.787 64.58ZM346.819 57.044V56.1H352.019V57.044H346.819ZM354.631 64.5V52.628H355.767V64.5H354.631ZM364.192 64.5V62.644L364.144 62.34V59.236C364.144 58.5213 363.941 57.972 363.536 57.588C363.141 57.204 362.549 57.012 361.76 57.012C361.216 57.012 360.698 57.1027 360.208 57.284C359.717 57.4653 359.301 57.7053 358.96 58.004L358.448 57.156C358.874 56.7933 359.386 56.516 359.984 56.324C360.581 56.1213 361.21 56.02 361.872 56.02C362.96 56.02 363.797 56.292 364.384 56.836C364.981 57.3693 365.28 58.1853 365.28 59.284V64.5H364.192ZM361.296 64.58C360.666 64.58 360.117 64.4787 359.648 64.276C359.189 64.0627 358.837 63.7747 358.592 63.412C358.346 63.0387 358.224 62.612 358.224 62.132C358.224 61.6947 358.325 61.3 358.528 60.948C358.741 60.5853 359.082 60.2973 359.552 60.084C360.032 59.86 360.672 59.748 361.472 59.748H364.368V60.596H361.504C360.693 60.596 360.128 60.74 359.808 61.028C359.498 61.316 359.344 61.6733 359.344 62.1C359.344 62.58 359.53 62.964 359.904 63.252C360.277 63.54 360.8 63.684 361.472 63.684C362.112 63.684 362.661 63.54 363.12 63.252C363.589 62.9533 363.93 62.5267 364.144 61.972L364.4 62.756C364.186 63.3107 363.813 63.7533 363.28 64.084C362.757 64.4147 362.096 64.58 361.296 64.58ZM368.365 64.5V56.1H369.453V58.388L369.341 57.988C369.576 57.348 369.971 56.8627 370.525 56.532C371.08 56.1907 371.768 56.02 372.589 56.02V57.124C372.547 57.124 372.504 57.124 372.461 57.124C372.419 57.1133 372.376 57.108 372.333 57.108C371.448 57.108 370.755 57.38 370.253 57.924C369.752 58.4573 369.501 59.22 369.501 60.212V64.5H368.365Z" fill="black" fill-opacity="0.6"/>
<line x1="394.5" y1="0.5" x2="394.5" y2="69.5" stroke="black" stroke-opacity="0.1"/>
<path d="M424.64 39.98C422.693 39.98 420.76 39.7267 418.84 39.22C416.92 38.6867 415.293 37.94 413.96 36.98L416.48 32.02C417.547 32.7933 418.787 33.4067 420.2 33.86C421.613 34.3133 423.04 34.54 424.48 34.54C426.107 34.54 427.387 34.22 428.32 33.58C429.253 32.94 429.72 32.06 429.72 30.94C429.72 29.8733 429.307 29.0333 428.48 28.42C427.653 27.8067 426.32 27.5 424.48 27.5H421.52V23.22L429.32 14.38L430.04 16.7H415.36V11.5H434.96V15.7L427.2 24.54L423.92 22.66H425.8C429.24 22.66 431.84 23.4333 433.6 24.98C435.36 26.5267 436.24 28.5133 436.24 30.94C436.24 32.5133 435.827 33.9933 435 35.38C434.173 36.74 432.907 37.8467 431.2 38.7C429.493 39.5533 427.307 39.98 424.64 39.98ZM451.232 39.98C448.939 39.98 446.885 39.42 445.072 38.3C443.259 37.1533 441.832 35.5 440.792 33.34C439.752 31.18 439.232 28.5667 439.232 25.5C439.232 22.4333 439.752 19.82 440.792 17.66C441.832 15.5 443.259 13.86 445.072 12.74C446.885 11.5933 448.939 11.02 451.232 11.02C453.552 11.02 455.605 11.5933 457.392 12.74C459.205 13.86 460.632 15.5 461.672 17.66C462.712 19.82 463.232 22.4333 463.232 25.5C463.232 28.5667 462.712 31.18 461.672 33.34C460.632 35.5 459.205 37.1533 457.392 38.3C455.605 39.42 453.552 39.98 451.232 39.98ZM451.232 34.5C452.325 34.5 453.272 34.1933 454.072 33.58C454.899 32.9667 455.539 31.9933 455.992 30.66C456.472 29.3267 456.712 27.6067 456.712 25.5C456.712 23.3933 456.472 21.6733 455.992 20.34C455.539 19.0067 454.899 18.0333 454.072 17.42C453.272 16.8067 452.325 16.5 451.232 16.5C450.165 16.5 449.219 16.8067 448.392 17.42C447.592 18.0333 446.952 19.0067 446.472 20.34C446.019 21.6733 445.792 23.3933 445.792 25.5C445.792 27.6067 446.019 29.3267 446.472 30.66C446.952 31.9933 447.592 32.9667 448.392 33.58C449.219 34.1933 450.165 34.5 451.232 34.5ZM466.113 45.66L468.753 36.06L469.633 39.66C468.486 39.66 467.539 39.3267 466.793 38.66C466.073 37.9933 465.713 37.0733 465.713 35.9C465.713 34.7267 466.086 33.7933 466.833 33.1C467.579 32.4067 468.499 32.06 469.592 32.06C470.713 32.06 471.633 32.42 472.353 33.14C473.073 33.8333 473.433 34.7533 473.433 35.9C473.433 36.2467 473.406 36.5933 473.353 36.94C473.299 37.26 473.193 37.66 473.033 38.14C472.899 38.5933 472.673 39.18 472.353 39.9L470.073 45.66H466.113ZM487.833 39.98C485.54 39.98 483.487 39.42 481.673 38.3C479.86 37.1533 478.433 35.5 477.393 33.34C476.353 31.18 475.833 28.5667 475.833 25.5C475.833 22.4333 476.353 19.82 477.393 17.66C478.433 15.5 479.86 13.86 481.673 12.74C483.487 11.5933 485.54 11.02 487.833 11.02C490.153 11.02 492.207 11.5933 493.993 12.74C495.807 13.86 497.233 15.5 498.273 17.66C499.313 19.82 499.833 22.4333 499.833 25.5C499.833 28.5667 499.313 31.18 498.273 33.34C497.233 35.5 495.807 37.1533 493.993 38.3C492.207 39.42 490.153 39.98 487.833 39.98ZM487.833 34.5C488.927 34.5 489.873 34.1933 490.673 33.58C491.5 32.9667 492.14 31.9933 492.593 30.66C493.073 29.3267 493.313 27.6067 493.313 25.5C493.313 23.3933 493.073 21.6733 492.593 20.34C492.14 19.0067 491.5 18.0333 490.673 17.42C489.873 16.8067 488.927 16.5 487.833 16.5C486.767 16.5 485.82 16.8067 484.993 17.42C484.193 18.0333 483.553 19.0067 483.073 20.34C482.62 21.6733 482.393 23.3933 482.393 25.5C482.393 27.6067 482.62 29.3267 483.073 30.66C483.553 31.9933 484.193 32.9667 484.993 33.58C485.82 34.1933 486.767 34.5 487.833 34.5ZM514.982 39.98C512.689 39.98 510.635 39.42 508.822 38.3C507.009 37.1533 505.582 35.5 504.542 33.34C503.502 31.18 502.982 28.5667 502.982 25.5C502.982 22.4333 503.502 19.82 504.542 17.66C505.582 15.5 507.009 13.86 508.822 12.74C510.635 11.5933 512.689 11.02 514.982 11.02C517.302 11.02 519.355 11.5933 521.142 12.74C522.955 13.86 524.382 15.5 525.422 17.66C526.462 19.82 526.982 22.4333 526.982 25.5C526.982 28.5667 526.462 31.18 525.422 33.34C524.382 35.5 522.955 37.1533 521.142 38.3C519.355 39.42 517.302 39.98 514.982 39.98ZM514.982 34.5C516.075 34.5 517.022 34.1933 517.822 33.58C518.649 32.9667 519.289 31.9933 519.742 30.66C520.222 29.3267 520.462 27.6067 520.462 25.5C520.462 23.3933 520.222 21.6733 519.742 20.34C519.289 19.0067 518.649 18.0333 517.822 17.42C517.022 16.8067 516.075 16.5 514.982 16.5C513.915 16.5 512.969 16.8067 512.142 17.42C511.342 18.0333 510.702 19.0067 510.222 20.34C509.769 21.6733 509.542 23.3933 509.542 25.5C509.542 27.6067 509.769 29.3267 510.222 30.66C510.702 31.9933 511.342 32.9667 512.142 33.58C512.969 34.1933 513.915 34.5 514.982 34.5ZM542.13 39.98C539.837 39.98 537.784 39.42 535.97 38.3C534.157 37.1533 532.73 35.5 531.69 33.34C530.65 31.18 530.13 28.5667 530.13 25.5C530.13 22.4333 530.65 19.82 531.69 17.66C532.73 15.5 534.157 13.86 535.97 12.74C537.784 11.5933 539.837 11.02 542.13 11.02C544.45 11.02 546.504 11.5933 548.29 12.74C550.104 13.86 551.53 15.5 552.57 17.66C553.61 19.82 554.13 22.4333 554.13 25.5C554.13 28.5667 553.61 31.18 552.57 33.34C551.53 35.5 550.104 37.1533 548.29 38.3C546.504 39.42 544.45 39.98 542.13 39.98ZM542.13 34.5C543.224 34.5 544.17 34.1933 544.97 33.58C545.797 32.9667 546.437 31.9933 546.89 30.66C547.37 29.3267 547.61 27.6067 547.61 25.5C547.61 23.3933 547.37 21.6733 546.89 20.34C546.437 19.0067 545.797 18.0333 544.97 17.42C544.17 16.8067 543.224 16.5 542.13 16.5C541.064 16.5 540.117 16.8067 539.29 17.42C538.49 18.0333 537.85 19.0067 537.37 20.34C536.917 21.6733 536.69 23.3933 536.69 25.5C536.69 27.6067 536.917 29.3267 537.37 30.66C537.85 31.9933 538.49 32.9667 539.29 33.58C540.117 34.1933 541.064 34.5 542.13 34.5Z" fill="black"/>
<path d="M565.236 34.74V16.26H570.396V34.74H565.236ZM558.316 27.94V23.06H577.356V27.94H558.316Z" fill="#245D30"/>
<path d="M415.824 64.5V53.3H420.656C421.904 53.3 422.869 53.5507 423.552 54.052C424.245 54.5533 424.592 55.2627 424.592 56.18C424.592 56.788 424.448 57.3 424.16 57.716C423.883 58.132 423.499 58.4467 423.008 58.66C422.528 58.8733 422 58.98 421.424 58.98L421.696 58.596C422.411 58.596 423.024 58.708 423.536 58.932C424.059 59.1453 424.464 59.4707 424.752 59.908C425.04 60.3347 425.184 60.868 425.184 61.508C425.184 62.4573 424.832 63.1933 424.128 63.716C423.435 64.2387 422.384 64.5 420.976 64.5H415.824ZM417.008 63.524H420.96C421.941 63.524 422.693 63.3587 423.216 63.028C423.739 62.6867 424 62.148 424 61.412C424 60.6867 423.739 60.1587 423.216 59.828C422.693 59.4867 421.941 59.316 420.96 59.316H416.88V58.34H420.576C421.472 58.34 422.165 58.1693 422.656 57.828C423.157 57.4867 423.408 56.98 423.408 56.308C423.408 55.6253 423.157 55.1187 422.656 54.788C422.165 54.4467 421.472 54.276 420.576 54.276H417.008V63.524ZM432.911 64.5V62.644L432.863 62.34V59.236C432.863 58.5213 432.66 57.972 432.255 57.588C431.86 57.204 431.268 57.012 430.479 57.012C429.935 57.012 429.417 57.1027 428.927 57.284C428.436 57.4653 428.02 57.7053 427.679 58.004L427.167 57.156C427.593 56.7933 428.105 56.516 428.703 56.324C429.3 56.1213 429.929 56.02 430.591 56.02C431.679 56.02 432.516 56.292 433.103 56.836C433.7 57.3693 433.999 58.1853 433.999 59.284V64.5H432.911ZM430.015 64.58C429.385 64.58 428.836 64.4787 428.367 64.276C427.908 64.0627 427.556 63.7747 427.311 63.412C427.065 63.0387 426.943 62.612 426.943 62.132C426.943 61.6947 427.044 61.3 427.247 60.948C427.46 60.5853 427.801 60.2973 428.271 60.084C428.751 59.86 429.391 59.748 430.191 59.748H433.087V60.596H430.223C429.412 60.596 428.847 60.74 428.527 61.028C428.217 61.316 428.062 61.6733 428.062 62.1C428.062 62.58 428.249 62.964 428.623 63.252C428.996 63.54 429.519 63.684 430.191 63.684C430.831 63.684 431.38 63.54 431.839 63.252C432.308 62.9533 432.649 62.5267 432.863 61.972L433.119 62.756C432.905 63.3107 432.532 63.7533 431.999 64.084C431.476 64.4147 430.815 64.58 430.015 64.58ZM435.804 64.5L439.356 59.892L439.34 60.452L435.964 56.1H437.244L440.012 59.7L439.532 59.684L442.3 56.1H443.548L440.14 60.5L440.156 59.892L443.74 64.5H442.444L439.516 60.66L439.964 60.724L437.084 64.5H435.804ZM448.287 64.58C447.498 64.58 446.89 64.3667 446.463 63.94C446.036 63.5133 445.823 62.9107 445.823 62.132V54.244H446.959V62.068C446.959 62.5587 447.082 62.9373 447.327 63.204C447.583 63.4707 447.946 63.604 448.415 63.604C448.916 63.604 449.332 63.46 449.663 63.172L450.063 63.988C449.839 64.1907 449.567 64.34 449.247 64.436C448.938 64.532 448.618 64.58 448.287 64.58ZM444.319 57.044V56.1H449.519V57.044H444.319ZM452.131 64.5V52.628H453.267V64.5H452.131ZM456.428 64.5V56.1H457.564V64.5H456.428ZM457.004 54.244C456.769 54.244 456.572 54.164 456.412 54.004C456.252 53.844 456.172 53.652 456.172 53.428C456.172 53.204 456.252 53.0173 456.412 52.868C456.572 52.708 456.769 52.628 457.004 52.628C457.238 52.628 457.436 52.7027 457.596 52.852C457.756 53.0013 457.836 53.188 457.836 53.412C457.836 53.6467 457.756 53.844 457.596 54.004C457.446 54.164 457.249 54.244 457.004 54.244ZM475.408 56.02C476.091 56.02 476.683 56.1533 477.184 56.42C477.696 56.676 478.091 57.0707 478.368 57.604C478.656 58.1373 478.8 58.8093 478.8 59.62V64.5H477.664V59.732C477.664 58.8467 477.451 58.18 477.024 57.732C476.608 57.2733 476.016 57.044 475.248 57.044C474.672 57.044 474.171 57.1667 473.744 57.412C473.328 57.6467 473.003 57.9933 472.768 58.452C472.544 58.9 472.432 59.444 472.432 60.084V64.5H471.296V59.732C471.296 58.8467 471.083 58.18 470.656 57.732C470.229 57.2733 469.632 57.044 468.864 57.044C468.299 57.044 467.803 57.1667 467.376 57.412C466.949 57.6467 466.619 57.9933 466.384 58.452C466.16 58.9 466.048 59.444 466.048 60.084V64.5H464.912V56.1H466V58.372L465.824 57.972C466.08 57.364 466.491 56.8893 467.056 56.548C467.632 56.196 468.309 56.02 469.088 56.02C469.909 56.02 470.608 56.228 471.184 56.644C471.76 57.0493 472.133 57.6627 472.304 58.484L471.856 58.308C472.101 57.6253 472.533 57.076 473.152 56.66C473.781 56.2333 474.533 56.02 475.408 56.02ZM481.881 64.5V56.1H483.017V64.5H481.881ZM482.457 54.244C482.222 54.244 482.025 54.164 481.865 54.004C481.705 53.844 481.625 53.652 481.625 53.428C481.625 53.204 481.705 53.0173 481.865 52.868C482.025 52.708 482.222 52.628 482.457 52.628C482.692 52.628 482.889 52.7027 483.049 52.852C483.209 53.0013 483.289 53.188 483.289 53.412C483.289 53.6467 483.209 53.844 483.049 54.004C482.9 54.164 482.702 54.244 482.457 54.244ZM484.93 67.684C484.588 67.684 484.263 67.636 483.954 67.54C483.634 67.4547 483.367 67.3213 483.154 67.14L483.554 66.276C483.895 66.564 484.332 66.708 484.866 66.708C485.314 66.708 485.655 66.5747 485.89 66.308C486.135 66.0413 486.258 65.6467 486.258 65.124V56.1H487.394V65.124C487.394 65.9027 487.18 66.5213 486.754 66.98C486.338 67.4493 485.73 67.684 484.93 67.684ZM486.834 54.244C486.599 54.244 486.402 54.164 486.242 54.004C486.082 53.844 486.002 53.652 486.002 53.428C486.002 53.204 486.082 53.0173 486.242 52.868C486.402 52.708 486.599 52.628 486.834 52.628C487.068 52.628 487.266 52.7027 487.426 52.852C487.586 53.0013 487.666 53.188 487.666 53.412C487.666 53.6467 487.586 53.844 487.426 54.004C487.276 54.164 487.079 54.244 486.834 54.244ZM493.992 64.58C493.182 64.58 492.451 64.3987 491.8 64.036C491.16 63.6627 490.654 63.156 490.28 62.516C489.907 61.8653 489.72 61.124 489.72 60.292C489.72 59.4493 489.907 58.708 490.28 58.068C490.654 57.428 491.16 56.9267 491.8 56.564C492.44 56.2013 493.171 56.02 493.992 56.02C494.824 56.02 495.56 56.2013 496.2 56.564C496.851 56.9267 497.358 57.428 497.72 58.068C498.094 58.708 498.28 59.4493 498.28 60.292C498.28 61.124 498.094 61.8653 497.72 62.516C497.358 63.156 496.851 63.6627 496.2 64.036C495.55 64.3987 494.814 64.58 493.992 64.58ZM493.992 63.572C494.6 63.572 495.139 63.4387 495.608 63.172C496.078 62.8947 496.446 62.5107 496.712 62.02C496.99 61.5187 497.128 60.9427 497.128 60.292C497.128 59.6307 496.99 59.0547 496.712 58.564C496.446 58.0733 496.078 57.6947 495.608 57.428C495.139 57.1507 494.606 57.012 494.008 57.012C493.411 57.012 492.878 57.1507 492.408 57.428C491.939 57.6947 491.566 58.0733 491.288 58.564C491.011 59.0547 490.872 59.6307 490.872 60.292C490.872 60.9427 491.011 61.5187 491.288 62.02C491.566 62.5107 491.939 62.8947 492.408 63.172C492.878 63.4387 493.406 63.572 493.992 63.572ZM499.547 64.5V63.748L505.147 56.66L505.387 57.044H499.643V56.1H506.283V56.836L500.699 63.94L500.411 63.556H506.395V64.5H499.547ZM508.631 64.5V52.628H509.767V64.5H508.631ZM518.192 64.5V62.644L518.144 62.34V59.236C518.144 58.5213 517.941 57.972 517.536 57.588C517.141 57.204 516.549 57.012 515.76 57.012C515.216 57.012 514.698 57.1027 514.208 57.284C513.717 57.4653 513.301 57.7053 512.96 58.004L512.448 57.156C512.874 56.7933 513.386 56.516 513.984 56.324C514.581 56.1213 515.21 56.02 515.872 56.02C516.96 56.02 517.797 56.292 518.384 56.836C518.981 57.3693 519.28 58.1853 519.28 59.284V64.5H518.192ZM515.296 64.58C514.666 64.58 514.117 64.4787 513.648 64.276C513.189 64.0627 512.837 63.7747 512.592 63.412C512.346 63.0387 512.224 62.612 512.224 62.132C512.224 61.6947 512.325 61.3 512.528 60.948C512.741 60.5853 513.082 60.2973 513.552 60.084C514.032 59.86 514.672 59.748 515.472 59.748H518.368V60.596H515.504C514.693 60.596 514.128 60.74 513.808 61.028C513.498 61.316 513.344 61.6733 513.344 62.1C513.344 62.58 513.53 62.964 513.904 63.252C514.277 63.54 514.8 63.684 515.472 63.684C516.112 63.684 516.661 63.54 517.12 63.252C517.589 62.9533 517.93 62.5267 518.144 61.972L518.4 62.756C518.186 63.3107 517.813 63.7533 517.28 64.084C516.757 64.4147 516.096 64.58 515.296 64.58ZM522.365 64.5V56.1H523.453V58.388L523.341 57.988C523.576 57.348 523.971 56.8627 524.525 56.532C525.08 56.1907 525.768 56.02 526.589 56.02V57.124C526.547 57.124 526.504 57.124 526.461 57.124C526.419 57.1133 526.376 57.108 526.333 57.108C525.448 57.108 524.755 57.38 524.253 57.924C523.752 58.4573 523.501 59.22 523.501 60.212V64.5H522.365Z" fill="black" fill-opacity="0.6"/>
</svg>
