<svg width="66" height="49" viewBox="0 0 66 49" fill="none" xmlns="http://www.w3.org/2000/svg">
<g filter="url(#filter0_dd_0_1716)">
<rect x="9.38574" y="4.96973" width="46.6143" height="30.0304" rx="5.37857" fill="white"/>
<rect x="9.27369" y="4.85767" width="46.8384" height="30.2545" rx="5.49062" stroke="#D6DCE5" stroke-width="0.224107"/>
<path d="M31.6797 23.584H30.6312V15.4258H33.4107C34.1151 15.4258 34.7158 15.6606 35.2072 16.1302C35.7096 16.5998 35.9608 17.1732 35.9608 17.8503C35.9608 18.5438 35.7096 19.1172 35.2072 19.5814C34.7213 20.0455 34.1206 20.2749 33.4107 20.2749H31.6797V23.584ZM31.6797 16.4305V19.2756H33.4325C33.8475 19.2756 34.197 19.1336 34.4701 18.8551C34.7486 18.5766 34.8905 18.238 34.8905 17.8558C34.8905 17.479 34.7486 17.1459 34.4701 16.8674C34.197 16.578 33.853 16.436 33.4325 16.436H31.6797V16.4305Z" fill="#3C4043"/>
<path d="M38.702 17.8176C39.4774 17.8176 40.089 18.0251 40.5367 18.4401C40.9845 18.8551 41.2084 19.423 41.2084 20.1438V23.584H40.2091V22.8086H40.1654C39.734 23.4475 39.1552 23.7642 38.4344 23.7642C37.8173 23.7642 37.304 23.584 36.889 23.2182C36.474 22.8523 36.2665 22.3991 36.2665 21.853C36.2665 21.2742 36.4849 20.8155 36.9218 20.4769C37.3586 20.1329 37.9429 19.9636 38.6692 19.9636C39.2917 19.9636 39.805 20.0783 40.2036 20.3076V20.0674C40.2036 19.7015 40.0617 19.3957 39.7722 19.139C39.4828 18.8824 39.1443 18.7568 38.7566 18.7568C38.1723 18.7568 37.7081 19.0025 37.3696 19.4994L36.4467 18.9206C36.9545 18.1834 37.7081 17.8176 38.702 17.8176ZM37.3477 21.8694C37.3477 22.1424 37.4624 22.3718 37.6972 22.552C37.9265 22.7322 38.1996 22.825 38.5108 22.825C38.9531 22.825 39.3463 22.6612 39.6903 22.3335C40.0344 22.0059 40.2091 21.6236 40.2091 21.1813C39.8815 20.9247 39.4282 20.7936 38.8439 20.7936C38.418 20.7936 38.0631 20.8974 37.7791 21.0994C37.4897 21.3124 37.3477 21.569 37.3477 21.8694Z" fill="#3C4043"/>
<path d="M46.9094 17.9978L43.4146 26.0359H42.3333L43.633 23.2237L41.3286 17.9978H42.4699L44.1299 22.0059H44.1517L45.7681 17.9978H46.9094Z" fill="#3C4043"/>
<path d="M27.5093 19.6141C27.5093 19.2723 27.4787 18.9452 27.4219 18.6307H23.0272V20.4327L25.5582 20.4332C25.4556 21.0328 25.1252 21.5439 24.619 21.8847V23.0538H26.1256C27.0053 22.2396 27.5093 21.0361 27.5093 19.6141Z" fill="#4285F4"/>
<path d="M24.6195 21.8847C24.2001 22.1676 23.6601 22.333 23.0283 22.333C21.8078 22.333 20.7725 21.5107 20.4017 20.4022H18.8476V21.6079C19.6176 23.1358 21.2001 24.1842 23.0283 24.1842C24.2919 24.1842 25.3534 23.7687 26.1261 23.0533L24.6195 21.8847Z" fill="#34A853"/>
<path d="M20.2553 19.5076C20.2553 19.1964 20.3072 18.8955 20.4017 18.6126V17.4069H18.8476C18.5292 18.0387 18.3501 18.7519 18.3501 19.5076C18.3501 20.2634 18.5298 20.9765 18.8476 21.6083L20.4017 20.4026C20.3072 20.1198 20.2553 19.8189 20.2553 19.5076Z" fill="#FABB05"/>
<path d="M23.0283 16.6817C23.718 16.6817 24.3356 16.9193 24.8232 17.3834L26.1583 16.0494C25.3474 15.2942 24.2902 14.8306 23.0283 14.8306C21.2006 14.8306 19.6175 15.879 18.8476 17.4069L20.4017 18.6126C20.7724 17.5041 21.8078 16.6817 23.0283 16.6817Z" fill="#E94235"/>
</g>
<defs>
<filter id="filter0_dd_0_1716" x="0.197335" y="0.263463" width="64.9911" height="48.4071" filterUnits="userSpaceOnUse" color-interpolation-filters="sRGB">
<feFlood flood-opacity="0" result="BackgroundImageFix"/>
<feColorMatrix in="SourceAlpha" type="matrix" values="0 0 0 0 0 0 0 0 0 0 0 0 0 0 0 0 0 0 127 0" result="hardAlpha"/>
<feOffset dy="0.448214"/>
<feGaussianBlur stdDeviation="2.24107"/>
<feColorMatrix type="matrix" values="0 0 0 0 0.717647 0 0 0 0 0.717647 0 0 0 0 0.717647 0 0 0 0.08 0"/>
<feBlend mode="normal" in2="BackgroundImageFix" result="effect1_dropShadow_0_1716"/>
<feColorMatrix in="SourceAlpha" type="matrix" values="0 0 0 0 0 0 0 0 0 0 0 0 0 0 0 0 0 0 127 0" result="hardAlpha"/>
<feOffset dy="4.48214"/>
<feGaussianBlur stdDeviation="4.48214"/>
<feColorMatrix type="matrix" values="0 0 0 0 0.717647 0 0 0 0 0.717647 0 0 0 0 0.717647 0 0 0 0.08 0"/>
<feBlend mode="normal" in2="effect1_dropShadow_0_1716" result="effect2_dropShadow_0_1716"/>
<feBlend mode="normal" in="SourceGraphic" in2="effect2_dropShadow_0_1716" result="shape"/>
</filter>
</defs>
</svg>
