<svg width="66" height="49" viewBox="0 0 66 49" fill="none" xmlns="http://www.w3.org/2000/svg">
<g filter="url(#filter0_dd_0_1710)">
<rect x="10.0964" y="4.96973" width="46.6143" height="30.0304" rx="5.37857" fill="white"/>
<rect x="9.98438" y="4.85767" width="46.8384" height="30.2545" rx="5.49062" stroke="#D6DCE5" stroke-width="0.224107"/>
<path d="M36.752 13.8181H29.8887V26.1516H36.752V13.8181Z" fill="#FF5F00"/>
<path d="M30.3245 19.9849C30.3234 18.7971 30.5926 17.6246 31.1116 16.5562C31.6307 15.4878 32.386 14.5515 33.3204 13.8181C32.1632 12.9086 30.7736 12.343 29.3102 12.1859C27.8468 12.0288 26.3688 12.2867 25.045 12.9299C23.7212 13.5731 22.6052 14.5759 21.8243 15.8234C21.0435 17.071 20.6294 18.5131 20.6294 19.9849C20.6294 21.4566 21.0435 22.8987 21.8243 24.1463C22.6052 25.3939 23.7212 26.3966 25.045 27.0398C26.3688 27.6831 27.8468 27.9409 29.3102 27.7838C30.7736 27.6267 32.1632 27.0611 33.3204 26.1516C32.386 25.4183 31.6307 24.482 31.1116 23.4136C30.5926 22.3451 30.3234 21.1727 30.3245 19.9849Z" fill="#EB001B"/>
<path d="M46.0109 19.9849C46.011 21.4566 45.5969 22.8987 44.8161 24.1463C44.0354 25.3938 42.9193 26.3966 41.5955 27.0398C40.2718 27.6831 38.7938 27.9409 37.3304 27.7838C35.8671 27.6268 34.4774 27.0611 33.3204 26.1516C34.2539 25.4175 35.0086 24.4811 35.5276 23.4128C36.0465 22.3446 36.3162 21.1725 36.3162 19.9849C36.3162 18.7972 36.0465 17.6251 35.5276 16.5569C35.0086 15.4887 34.2539 14.5522 33.3204 13.8181C34.4774 12.9086 35.8671 12.343 37.3304 12.1859C38.7938 12.0288 40.2718 12.2867 41.5955 12.9299C42.9193 13.5732 44.0354 14.5759 44.8161 15.8235C45.5969 17.071 46.011 18.5131 46.0109 19.9849Z" fill="#F79E1B"/>
<path d="M45.2626 24.8453V24.5928H45.3644V24.5414H45.1051V24.5928H45.207V24.8453H45.2626ZM45.766 24.8453V24.5409H45.6865L45.5951 24.7503L45.5037 24.5409H45.4241V24.8453H45.4803V24.6157L45.566 24.8137H45.6242L45.7099 24.6152V24.8453H45.766Z" fill="#F79E1B"/>
</g>
<defs>
<filter id="filter0_dd_0_1710" x="0.908029" y="0.263463" width="64.9911" height="48.4071" filterUnits="userSpaceOnUse" color-interpolation-filters="sRGB">
<feFlood flood-opacity="0" result="BackgroundImageFix"/>
<feColorMatrix in="SourceAlpha" type="matrix" values="0 0 0 0 0 0 0 0 0 0 0 0 0 0 0 0 0 0 127 0" result="hardAlpha"/>
<feOffset dy="0.448214"/>
<feGaussianBlur stdDeviation="2.24107"/>
<feColorMatrix type="matrix" values="0 0 0 0 0.717647 0 0 0 0 0.717647 0 0 0 0 0.717647 0 0 0 0.08 0"/>
<feBlend mode="normal" in2="BackgroundImageFix" result="effect1_dropShadow_0_1710"/>
<feColorMatrix in="SourceAlpha" type="matrix" values="0 0 0 0 0 0 0 0 0 0 0 0 0 0 0 0 0 0 127 0" result="hardAlpha"/>
<feOffset dy="4.48214"/>
<feGaussianBlur stdDeviation="4.48214"/>
<feColorMatrix type="matrix" values="0 0 0 0 0.717647 0 0 0 0 0.717647 0 0 0 0 0.717647 0 0 0 0.08 0"/>
<feBlend mode="normal" in2="effect1_dropShadow_0_1710" result="effect2_dropShadow_0_1710"/>
<feBlend mode="normal" in="SourceGraphic" in2="effect2_dropShadow_0_1710" result="shape"/>
</filter>
</defs>
</svg>
