<svg width="66" height="49" viewBox="0 0 66 49" fill="none" xmlns="http://www.w3.org/2000/svg">
<g filter="url(#filter0_dd_0_1714)">
<rect x="9.28931" y="4.96973" width="46.6143" height="30.0304" rx="5.37857" fill="white"/>
<rect x="9.17725" y="4.85767" width="46.8384" height="30.2545" rx="5.49062" stroke="#D6DCE5" stroke-width="0.224107"/>
<path d="M24.3663 16.0514C24.6773 15.6625 24.8883 15.1402 24.8327 14.6064C24.3774 14.6291 23.8219 14.9068 23.5003 15.2961C23.2115 15.6294 22.9559 16.1736 23.0225 16.6849C23.5335 16.7293 24.0441 16.4295 24.3663 16.0514Z" fill="#000008"/>
<path d="M24.8269 16.7848C24.0847 16.7406 23.4537 17.206 23.0993 17.206C22.7447 17.206 22.202 16.8071 21.615 16.8178C20.851 16.829 20.142 17.261 19.7543 17.9481C18.9569 19.3225 19.5439 21.3613 20.3194 22.4807C20.6959 23.0346 21.1498 23.6443 21.7478 23.6224C22.3129 23.6003 22.5343 23.2566 23.2211 23.2566C23.9075 23.2566 24.107 23.6224 24.7051 23.6114C25.3253 23.6003 25.7131 23.0573 26.0897 22.5029C26.5217 21.8716 26.6986 21.262 26.7097 21.2286C26.6986 21.2175 25.5136 20.7629 25.5027 19.3999C25.4915 18.2586 26.433 17.7157 26.4773 17.6821C25.9456 16.8957 25.1149 16.8071 24.8269 16.7848Z" fill="#000008"/>
<path d="M31.289 15.2403C32.902 15.2403 34.0252 16.3521 34.0252 17.971C34.0252 19.5956 32.8789 20.7133 31.2485 20.7133H29.4625V23.5535H28.1722V15.2402L31.289 15.2403ZM29.4625 19.6302H30.9431C32.0666 19.6302 32.706 19.0253 32.706 17.9768C32.706 16.9283 32.0666 16.3291 30.9489 16.3291H29.4625V19.6302Z" fill="#000008"/>
<path d="M34.3624 21.8309C34.3624 20.7708 35.1747 20.1199 36.615 20.0392L38.2741 19.9413V19.4747C38.2741 18.8006 37.8189 18.3973 37.0586 18.3973C36.3383 18.3973 35.889 18.7429 35.7796 19.2845H34.6044C34.6735 18.1899 35.6067 17.3833 37.1046 17.3833C38.5737 17.3833 39.5127 18.1611 39.5127 19.3767V23.5534H38.3201V22.5568H38.2914C37.9401 23.2308 37.1738 23.6571 36.3788 23.6571C35.192 23.6571 34.3624 22.9197 34.3624 21.8309ZM38.2741 21.2836V20.8055L36.7819 20.8976C36.0388 20.9495 35.6183 21.2779 35.6183 21.7964C35.6183 22.3263 36.0561 22.672 36.7244 22.672C37.5943 22.672 38.2741 22.0728 38.2741 21.2836Z" fill="#000008"/>
<path d="M40.6386 25.783V24.7748C40.7306 24.7978 40.9379 24.7978 41.0417 24.7978C41.6178 24.7978 41.9289 24.5559 42.1189 23.9337C42.1189 23.9221 42.2285 23.565 42.2285 23.5592L40.0394 17.4928H41.3873L42.9199 22.4243H42.9428L44.4754 17.4928H45.7889L43.5189 23.8702C43.0006 25.3394 42.4014 25.8118 41.1455 25.8118C41.0417 25.8118 40.7306 25.8002 40.6386 25.783Z" fill="#000008"/>
</g>
<defs>
<filter id="filter0_dd_0_1714" x="0.1009" y="0.263463" width="64.9911" height="48.4071" filterUnits="userSpaceOnUse" color-interpolation-filters="sRGB">
<feFlood flood-opacity="0" result="BackgroundImageFix"/>
<feColorMatrix in="SourceAlpha" type="matrix" values="0 0 0 0 0 0 0 0 0 0 0 0 0 0 0 0 0 0 127 0" result="hardAlpha"/>
<feOffset dy="0.448214"/>
<feGaussianBlur stdDeviation="2.24107"/>
<feColorMatrix type="matrix" values="0 0 0 0 0.717647 0 0 0 0 0.717647 0 0 0 0 0.717647 0 0 0 0.08 0"/>
<feBlend mode="normal" in2="BackgroundImageFix" result="effect1_dropShadow_0_1714"/>
<feColorMatrix in="SourceAlpha" type="matrix" values="0 0 0 0 0 0 0 0 0 0 0 0 0 0 0 0 0 0 127 0" result="hardAlpha"/>
<feOffset dy="4.48214"/>
<feGaussianBlur stdDeviation="4.48214"/>
<feColorMatrix type="matrix" values="0 0 0 0 0.717647 0 0 0 0 0.717647 0 0 0 0 0.717647 0 0 0 0.08 0"/>
<feBlend mode="normal" in2="effect1_dropShadow_0_1714" result="effect2_dropShadow_0_1714"/>
<feBlend mode="normal" in="SourceGraphic" in2="effect2_dropShadow_0_1714" result="shape"/>
</filter>
</defs>
</svg>
