<svg width="65" height="49" viewBox="0 0 65 49" fill="none" xmlns="http://www.w3.org/2000/svg">
<g filter="url(#filter0_dd_0_1712)">
<rect x="9.19287" y="4.96973" width="46.6143" height="30.0304" rx="5.37857" fill="white"/>
<rect x="9.08082" y="4.85767" width="46.8384" height="30.2545" rx="5.49062" stroke="#D6DCE5" stroke-width="0.224107"/>
<path fill-rule="evenodd" clip-rule="evenodd" d="M19.3899 15.6157H16.7024C16.5185 15.6157 16.3621 15.7494 16.3334 15.9308L15.2465 22.8216C15.2249 22.9576 15.3302 23.0801 15.4681 23.0801H16.7512C16.9351 23.0801 17.0915 22.9465 17.1201 22.7647L17.4133 20.9061C17.4416 20.7241 17.5984 20.5907 17.7819 20.5907H18.6327C20.403 20.5907 21.4247 19.7341 21.6917 18.0366C21.8119 17.294 21.6967 16.7105 21.3489 16.3018C20.967 15.8532 20.2894 15.6157 19.3899 15.6157ZM19.7 18.1325C19.553 19.0967 18.8162 19.0967 18.1038 19.0967H17.6982L17.9827 17.2959C17.9996 17.1871 18.0939 17.1069 18.204 17.1069H18.3898C18.8751 17.1069 19.333 17.1069 19.5696 17.3835C19.7105 17.5486 19.7538 17.7937 19.7 18.1325ZM27.4235 18.1016H26.1365C26.0269 18.1016 25.9321 18.1817 25.9152 18.2907L25.8583 18.6505L25.7683 18.5201C25.4897 18.1157 24.8685 17.9806 24.2483 17.9806C22.8261 17.9806 21.6115 19.0576 21.3749 20.5685C21.2519 21.322 21.4267 22.0426 21.8542 22.5452C22.2465 23.0072 22.8077 23.1998 23.4753 23.1998C24.6211 23.1998 25.2567 22.463 25.2567 22.463L25.1992 22.8207C25.1776 22.9574 25.2829 23.08 25.42 23.08H26.5793C26.7637 23.08 26.9192 22.9463 26.9483 22.7645L27.6439 18.3601C27.6659 18.2247 27.561 18.1016 27.4235 18.1016ZM25.6295 20.6061C25.5053 21.3413 24.9217 21.8348 24.1776 21.8348C23.8039 21.8348 23.5051 21.7149 23.3134 21.4878C23.1232 21.2624 23.0508 20.9412 23.1114 20.5838C23.2274 19.8548 23.8208 19.3453 24.5537 19.3453C24.919 19.3453 25.2162 19.4666 25.4118 19.6957C25.6079 19.9272 25.6857 20.2501 25.6295 20.6061ZM32.9844 18.1014H34.2778C34.4589 18.1014 34.5646 18.3045 34.4616 18.453L30.1602 24.6612C30.0906 24.7617 29.9758 24.8216 29.8533 24.8216H28.5615C28.3797 24.8216 28.2735 24.6168 28.3788 24.4679L29.7181 22.5776L28.2937 18.3976C28.2444 18.2523 28.3517 18.1014 28.5063 18.1014H29.7771C29.9422 18.1014 30.0878 18.2098 30.1355 18.3678L30.8915 20.8923L32.6753 18.2652C32.7451 18.1627 32.8611 18.1014 32.9844 18.1014Z" fill="#253B80"/>
<path fill-rule="evenodd" clip-rule="evenodd" d="M47.007 22.821L48.1099 15.8042C48.1268 15.6953 48.2212 15.6151 48.3309 15.6147H49.5726C49.7097 15.6147 49.815 15.7377 49.7933 15.8737L48.7057 22.764C48.6773 22.9459 48.5209 23.0795 48.3367 23.0795H47.2277C47.0906 23.0795 46.9853 22.957 47.007 22.821ZM38.56 15.6151H35.8721C35.6886 15.6151 35.5322 15.7488 35.5034 15.9302L34.4165 22.821C34.3949 22.957 34.5002 23.0795 34.6375 23.0795H36.0166C36.1448 23.0795 36.2545 22.9861 36.2745 22.8588L36.5829 20.9055C36.6113 20.7235 36.7681 20.5901 36.9515 20.5901H37.8019C39.5726 20.5901 40.5941 19.7334 40.8612 18.036C40.9818 17.2934 40.866 16.7099 40.5182 16.3012C40.1365 15.8526 39.4595 15.6151 38.56 15.6151ZM38.8701 18.1319C38.7235 19.0961 37.9867 19.0961 37.2738 19.0961H36.8686L37.1536 17.2952C37.1705 17.1865 37.264 17.1063 37.3744 17.1063H37.5602C38.0452 17.1063 38.5035 17.1063 38.7399 17.3829C38.881 17.548 38.9239 17.7931 38.8701 18.1319ZM46.5929 18.1009H45.3068C45.1963 18.1009 45.1024 18.1811 45.0859 18.2901L45.029 18.6499L44.9386 18.5195C44.66 18.1151 44.0391 17.98 43.419 17.98C41.9967 17.98 40.7825 19.057 40.5459 20.5679C40.4233 21.3214 40.5974 22.042 41.0249 22.5446C41.4179 23.0066 41.9784 23.1992 42.6459 23.1992C43.7918 23.1992 44.4272 22.4624 44.4272 22.4624L44.3699 22.8201C44.3483 22.9568 44.4536 23.0793 44.5916 23.0793H45.7504C45.9339 23.0793 46.0903 22.9457 46.119 22.7639L46.8149 18.3595C46.8362 18.224 46.7309 18.1009 46.5929 18.1009ZM44.7991 20.6055C44.6756 21.3407 44.0913 21.8342 43.347 21.8342C42.974 21.8342 42.6747 21.7143 42.4828 21.4872C42.2926 21.2617 42.2211 20.9406 42.281 20.5831C42.3975 19.8542 42.9902 19.3447 43.7231 19.3447C44.0886 19.3447 44.3856 19.466 44.5814 19.6951C44.7782 19.9265 44.856 20.2495 44.7991 20.6055Z" fill="#179BD7"/>
</g>
<defs>
<filter id="filter0_dd_0_1712" x="0.00446415" y="0.263463" width="64.9911" height="48.4071" filterUnits="userSpaceOnUse" color-interpolation-filters="sRGB">
<feFlood flood-opacity="0" result="BackgroundImageFix"/>
<feColorMatrix in="SourceAlpha" type="matrix" values="0 0 0 0 0 0 0 0 0 0 0 0 0 0 0 0 0 0 127 0" result="hardAlpha"/>
<feOffset dy="0.448214"/>
<feGaussianBlur stdDeviation="2.24107"/>
<feColorMatrix type="matrix" values="0 0 0 0 0.717647 0 0 0 0 0.717647 0 0 0 0 0.717647 0 0 0 0.08 0"/>
<feBlend mode="normal" in2="BackgroundImageFix" result="effect1_dropShadow_0_1712"/>
<feColorMatrix in="SourceAlpha" type="matrix" values="0 0 0 0 0 0 0 0 0 0 0 0 0 0 0 0 0 0 127 0" result="hardAlpha"/>
<feOffset dy="4.48214"/>
<feGaussianBlur stdDeviation="4.48214"/>
<feColorMatrix type="matrix" values="0 0 0 0 0.717647 0 0 0 0 0.717647 0 0 0 0 0.717647 0 0 0 0.08 0"/>
<feBlend mode="normal" in2="effect1_dropShadow_0_1712" result="effect2_dropShadow_0_1712"/>
<feBlend mode="normal" in="SourceGraphic" in2="effect2_dropShadow_0_1712" result="shape"/>
</filter>
</defs>
</svg>
