<svg width="260" height="43" viewBox="0 0 260 43" fill="none" xmlns="http://www.w3.org/2000/svg">
<path d="M8.32 37.04V34.384C3.872 34.064 1.024 31.472 0.928 27.568H5.024C5.056 29.392 6.24 30.544 8.32 30.8V23.984L7.296 23.76C3.264 22.896 1.248 20.656 1.248 17.136C1.248 13.392 4.064 10.704 8.32 10.256V7.536H10.784V10.256C14.816 10.672 17.312 13.2 17.44 17.04H13.472C13.408 15.312 12.448 14.192 10.784 13.84V20.72L11.872 20.976C15.968 21.872 17.824 23.856 17.824 27.248C17.824 31.152 15.072 33.84 10.784 34.32V37.04H8.32ZM8.192 20.144L8.32 20.176V13.808C6.4 14.128 5.248 15.28 5.248 17.008C5.248 18.704 6.144 19.696 8.192 20.144ZM11.008 24.56L10.784 24.496V30.736C12.704 30.352 13.856 29.232 13.856 27.6C13.856 25.968 12.928 24.976 11.008 24.56ZM36.6335 33.968L20.4095 34V30.928L28.0575 24.464C31.2255 21.776 32.2815 20.24 32.2815 18C32.2815 15.344 30.8415 13.84 28.3775 13.84C25.8175 13.84 24.2175 15.632 24.1855 18.64H20.1215C20.1535 13.52 23.4175 10.192 28.3775 10.192C33.3695 10.192 36.4735 13.04 36.4735 17.776C36.4735 21.04 34.6815 23.504 31.1295 26.544L26.9055 30.16H36.6335V33.968ZM42.4852 17.488L47.5413 10.608H52.2133L46.6133 18.064C47.1892 17.904 47.7973 17.808 48.3733 17.808C53.2053 17.808 56.4693 21.2 56.4693 25.936C56.4693 30.928 52.7573 34.416 47.7653 34.416C42.7093 34.416 38.9333 30.704 38.9333 25.904C38.9333 23.088 39.8613 21.04 42.4852 17.488ZM43.1253 25.936C43.1253 28.784 45.0133 30.768 47.7653 30.768C50.4213 30.768 52.3413 28.784 52.3413 25.936C52.3413 23.12 50.4533 21.168 47.7653 21.168C44.9813 21.168 43.1253 23.12 43.1253 25.936ZM59.001 22.352C59.001 15.088 62.905 10.16 68.889 10.16C74.873 10.16 78.809 15.088 78.809 22.352C78.809 29.584 75.097 34.416 68.889 34.416C62.681 34.416 59.001 29.584 59.001 22.352ZM63.033 22.352C63.033 27.76 65.209 30.8 68.889 30.8C72.601 30.8 74.777 27.76 74.777 22.352C74.777 16.816 72.601 13.776 68.889 13.776C65.209 13.776 63.033 16.816 63.033 22.352Z" fill="black"/>
<path d="M101.32 37.04V34.384C96.872 34.064 94.024 31.472 93.928 27.568H98.024C98.056 29.392 99.24 30.544 101.32 30.8V23.984L100.296 23.76C96.264 22.896 94.248 20.656 94.248 17.136C94.248 13.392 97.064 10.704 101.32 10.256V7.536H103.784V10.256C107.816 10.672 110.312 13.2 110.44 17.04H106.472C106.408 15.312 105.448 14.192 103.784 13.84V20.72L104.872 20.976C108.968 21.872 110.824 23.856 110.824 27.248C110.824 31.152 108.072 33.84 103.784 34.32V37.04H101.32ZM101.192 20.144L101.32 20.176V13.808C99.4 14.128 98.248 15.28 98.248 17.008C98.248 18.704 99.144 19.696 101.192 20.144ZM104.008 24.56L103.784 24.496V30.736C105.704 30.352 106.856 29.232 106.856 27.6C106.856 25.968 105.928 24.976 104.008 24.56ZM120.226 22.416H117.378V19.76L123.394 14.224H113.666V10.608H128.514V13.872L122.818 19.12C126.402 19.824 129.186 22.448 129.186 26.576C129.186 31.376 125.442 34.416 120.706 34.416C116.13 34.416 112.578 31.6 112.578 26.544H116.61C116.61 29.232 118.274 30.768 120.77 30.768C123.33 30.768 125.026 29.104 125.026 26.512C125.026 24.144 123.49 22.416 120.226 22.416ZM131.532 22.352C131.532 15.088 135.436 10.16 141.42 10.16C147.404 10.16 151.34 15.088 151.34 22.352C151.34 29.584 147.628 34.416 141.42 34.416C135.212 34.416 131.532 29.584 131.532 22.352ZM135.564 22.352C135.564 27.76 137.74 30.8 141.42 30.8C145.132 30.8 147.308 27.76 147.308 22.352C147.308 16.816 145.132 13.776 141.42 13.776C137.74 13.776 135.564 16.816 135.564 22.352ZM154.095 22.352C154.095 15.088 157.999 10.16 163.983 10.16C169.967 10.16 173.903 15.088 173.903 22.352C173.903 29.584 170.191 34.416 163.983 34.416C157.775 34.416 154.095 29.584 154.095 22.352ZM158.127 22.352C158.127 27.76 160.303 30.8 163.983 30.8C167.695 30.8 169.871 27.76 169.871 22.352C169.871 16.816 167.695 13.776 163.983 13.776C160.303 13.776 158.127 16.816 158.127 22.352Z" fill="black" fill-opacity="0.3"/>
<path d="M93 24.4H175.279V26H93V24.4Z" fill="black" fill-opacity="0.3"/>
<rect x="188" y="4.5" width="72" height="34" rx="17" fill="#FF3333" fill-opacity="0.1"/>
<path d="M203.008 23.932V22.588H207.888V23.932H203.008ZM218.299 25.164H216.923V27.5H215.419V25.164H209.435V23.772L214.891 15.932H216.923V23.772H218.299V25.164ZM211.131 23.772H215.419V17.596L211.131 23.772ZM219.847 21.724C219.847 18.14 221.703 15.708 224.615 15.708C227.51 15.708 229.367 18.14 229.367 21.724C229.367 25.324 227.591 27.708 224.615 27.708C221.623 27.708 219.847 25.324 219.847 21.724ZM221.399 21.724C221.399 24.572 222.583 26.3 224.615 26.3C226.647 26.3 227.815 24.572 227.815 21.724C227.815 18.844 226.647 17.116 224.615 17.116C222.583 17.116 221.399 18.844 221.399 21.724ZM236.668 18.668C236.668 20.38 235.452 21.612 233.74 21.612C232.044 21.612 230.828 20.38 230.828 18.668C230.828 16.94 232.044 15.708 233.74 15.708C235.452 15.708 236.668 16.94 236.668 18.668ZM242.764 15.948L233.98 27.5H232.444L241.228 15.948H242.764ZM235.436 18.668C235.436 17.628 234.748 16.908 233.74 16.908C232.748 16.908 232.06 17.628 232.06 18.668C232.06 19.692 232.748 20.412 233.74 20.412C234.732 20.412 235.436 19.692 235.436 18.668ZM244.412 24.764C244.412 26.476 243.18 27.708 241.484 27.708C239.788 27.708 238.556 26.476 238.556 24.764C238.556 23.036 239.788 21.82 241.484 21.82C243.18 21.82 244.412 23.036 244.412 24.764ZM243.164 24.764C243.164 23.724 242.492 23.004 241.484 23.004C240.492 23.004 239.804 23.724 239.804 24.764C239.804 25.788 240.492 26.508 241.484 26.508C242.476 26.508 243.164 25.788 243.164 24.764Z" fill="#FF3333"/>
</svg>
