<svg width="120" height="120" viewBox="0 0 120 120" fill="none" xmlns="http://www.w3.org/2000/svg">
<path d="M60 110C87.6142 110 110 87.6142 110 60C110 32.3858 87.6142 10 60 10C32.3858 10 10 32.3858 10 60C10 87.6142 32.3858 110 60 110Z" stroke="white" stroke-width="1.5"/>
<path d="M47.5 55.999V64.001C47.5 71.5975 47.5 75.3955 49.7788 76.931C52.0575 78.466 55.174 76.7675 61.4075 73.3705L68.7485 69.369C76.2495 65.281 80 63.237 80 60C80 56.763 76.2495 54.719 68.7485 50.631L61.4075 46.6297C55.174 43.2325 52.0575 41.5339 49.7788 43.0691C47.5 44.6043 47.5 48.4025 47.5 55.999Z" fill="white"/>
</svg>
