<svg width="66" height="49" viewBox="0 0 66 49" fill="none" xmlns="http://www.w3.org/2000/svg">
<g filter="url(#filter0_dd_0_1708)">
<rect x="10" y="4.96973" width="46.6143" height="30.0304" rx="5.37857" fill="white"/>
<rect x="9.88795" y="4.85767" width="46.8384" height="30.2545" rx="5.49062" stroke="#D6DCE5" stroke-width="0.224107"/>
<path d="M33.0222 15.0907L30.848 25.2543H28.2189L30.3935 15.0907H33.0222ZM44.0839 21.6534L45.4681 17.8366L46.2646 21.6534H44.0839ZM47.0173 25.2543H49.4492L47.3271 15.0907H45.0824C44.578 15.0907 44.1524 15.3841 43.963 15.8364L40.0185 25.2543H42.7795L43.3276 23.7366H46.7008L47.0173 25.2543ZM40.1555 21.9358C40.1668 19.2533 36.4459 19.1056 36.4716 17.9074C36.4794 17.5423 36.8271 17.155 37.5866 17.0556C37.9639 17.0063 39.0013 16.9687 40.1793 17.5107L40.6406 15.3555C40.0079 15.1258 39.1937 14.9048 38.1811 14.9048C35.5825 14.9048 33.7534 16.2864 33.738 18.2648C33.7216 19.7278 35.0437 20.5442 36.0399 21.0306C37.0642 21.5289 37.4084 21.848 37.4039 22.2935C37.3971 22.9758 36.5868 23.2762 35.8308 23.2881C34.5087 23.3091 33.7415 22.9314 33.13 22.6464L32.6536 24.8734C33.2677 25.1555 34.4016 25.4006 35.578 25.4132C38.3396 25.4132 40.1465 24.0486 40.1555 21.9358ZM29.2653 15.0907L25.0056 25.2543H22.226L20.1299 17.143C20.0025 16.6435 19.8918 16.4608 19.5049 16.2501C18.8734 15.9075 17.8295 15.5855 16.9111 15.386L16.9739 15.0907H21.4475C22.0175 15.0907 22.5306 15.4703 22.6599 16.1269L23.7671 22.0085L26.503 15.0907H29.2653Z" fill="#1434CB"/>
</g>
<defs>
<filter id="filter0_dd_0_1708" x="0.811593" y="0.263463" width="64.9911" height="48.4071" filterUnits="userSpaceOnUse" color-interpolation-filters="sRGB">
<feFlood flood-opacity="0" result="BackgroundImageFix"/>
<feColorMatrix in="SourceAlpha" type="matrix" values="0 0 0 0 0 0 0 0 0 0 0 0 0 0 0 0 0 0 127 0" result="hardAlpha"/>
<feOffset dy="0.448214"/>
<feGaussianBlur stdDeviation="2.24107"/>
<feColorMatrix type="matrix" values="0 0 0 0 0.717647 0 0 0 0 0.717647 0 0 0 0 0.717647 0 0 0 0.08 0"/>
<feBlend mode="normal" in2="BackgroundImageFix" result="effect1_dropShadow_0_1708"/>
<feColorMatrix in="SourceAlpha" type="matrix" values="0 0 0 0 0 0 0 0 0 0 0 0 0 0 0 0 0 0 127 0" result="hardAlpha"/>
<feOffset dy="4.48214"/>
<feGaussianBlur stdDeviation="4.48214"/>
<feColorMatrix type="matrix" values="0 0 0 0 0.717647 0 0 0 0 0.717647 0 0 0 0 0.717647 0 0 0 0.08 0"/>
<feBlend mode="normal" in2="effect1_dropShadow_0_1708" result="effect2_dropShadow_0_1708"/>
<feBlend mode="normal" in="SourceGraphic" in2="effect2_dropShadow_0_1708" result="shape"/>
</filter>
</defs>
</svg>
